<svg xmlns="http://www.w3.org/2000/svg" xml:space="preserve" width="652.566" height="652.301" style="shape-rendering:geometricPrecision;text-rendering:geometricPrecision;image-rendering:optimizeQuality;fill-rule:evenodd;clip-rule:evenodd" viewBox="0 0 17265.8 17258.82"><path d="M193.2 10430.4C18.43 9639.66-32.84 8850.9 19.57 8060.76c88.36-1332.12 446.42-2592.09 1132.54-3743.38C2528.17 2008.39 4530.84 532.92 7188.62 124.9c3501.68-537.59 6357.96 665.42 8489.04 3509.31 839.25 1119.97 1330.49 2401.21 1506.48 3785.87 327.39 2575.82-325.98 4879.99-2026.37 6857.31-1241.82 1444.06-2801.51 2395.57-4669.59 2776.49-2844.48 580.02-5393.54-67.77-7587.24-1986.88-1369.71-1198.26-2247.42-2705.28-2671.86-4475.39-11.73-48.92-21.11-98.4-35.88-161.21zm11294.91-1193.93c-48.87-93.4-137.62-59.43-210.25-59.56-1261.01-2.14-2522.03-1.68-3783.04-1.7-526.83-.01-1053.66 1.7-1580.48-.96-112.7-.57-163.49 27.23-145.58 155.68 34.76 249.34 26.09 502.27 46.01 753.66 53.07 669.64 150.84 1331.91 277.67 1990.76 18.83 97.82 64.93 140.88 170.26 140.71 1580.48-2.6 3160.95-2.68 4741.42-.7 102.52.13 156.58-38.68 175.76-137.17 180.83-928.81 308.2-1863.55 308.23-2840.72zM7442.26 5037.92c-381.34-.15-762.74 3.72-1143.98-2.74-124.36-2.11-183.68 43.65-207.87 163.71-180.58 895.99-290.34 1799.7-312.89 2714.01-3.15 127.68 45.35 163.57 166.87 163.39 1794.54-2.66 3589.07-3.09 5383.6.53 138.4.27 174.45-53.62 167.71-179.91-13.43-251.64-18.51-503.34-39.22-755.06-53.74-652.96-142.47-1300.19-272.42-1942.25-24.81-122.58-88.76-169.98-210-163.02-162.2 9.31-324.81 16.65-487.21 16.08-1003.65-3.53-2007.29-9.52-3044.59-14.74zm-5691.08 6621.3c63.52 131.14 132.5 259.98 188.91 394.1 49.7 118.19 121.92 164.43 256 163.46 863.4-6.27 1726.86-2.71 2590.3-4.1 58.96-.1 123.67 18.18 183.62-35.57-6.46-55.98-9.35-117.1-21.01-176.5-170.53-869.11-253.59-1748.11-290.13-2631.67-5.84-141.13-39.93-197.39-191.16-196.62-1048.44 5.35-2096.93 5.68-3145.36-.23-157.67-.89-192.88 58.94-176.25 199.66 92.5 782.77 276.01 1541.12 605.08 2287.47zm12926.64-3584.65c369.72.03 739.44.06 1109.16.07 345.61.02 349.45-.41 311.83-347.32-96.97-894.23-364.28-1736.93-769.95-2538.37-59.22-116.99-135.32-155.49-263.91-154.73-857.05 5.1-1714.13 2.5-2571.21 3.56-59.97.07-123.26-13.9-188.14 29.55 6.76 61.62 9.33 128.04 21.83 192.55 168.29 868.41 254.78 1746.08 287.3 2628.91 5.53 150.22 54.97 189.72 197.68 188.27 610.53-6.18 1221.16-2.55 1865.41-2.49zm1353.47 1909.9c30.04-198.74 59.82-397.53 90.21-596.22 29.06-190.04 10.78-212.75-184.83-212.86-840.33-.49-1680.66-.14-2520.99-.04-218.49.02-437 2.18-655.45-.56-98.54-1.24-140.02 38.31-142.82 139-5.6 201.2-20.89 402.12-31.83 603.17-26.73 491.34-80.72 979.85-155.11 1466.09-41.09 268.56-86.27 536.5-133.78 830.56 81.88 0 141.81.01 201.75 0 845.93-.15 1691.91-4.83 2537.76 3.57 159.79 1.58 241.15-54.77 309.07-192.25 316.66-640.97 549.06-1309.37 686.02-2040.46zM1343.99 6796.42c-95.51 363.27-146.95 734.35-196.16 1105.84-13.64 102.99 1.89 173.72 133.93 173.4 1076.46-2.57 2152.92-2.13 3229.38-.59 98.08.14 141.78-35.6 144.81-136.95 5.17-173.33 22.93-346.24 30.74-519.53 32.78-727.23 125.24-1447.17 260.32-2162.01 31.91-168.89 1.39-213.38-175.99-216.79-162.23-3.11-324.78 13.59-487.15 12.78-678.24-3.37-1356.55-5.34-2034.62-18.95-162.54-3.26-252.52 47.83-324.43 195.92-240.69 495.68-438.62 1005.94-580.83 1566.88zm7612.68-2861.34h1849.89c22.97-83.79.28-129.83-15.22-177.25-120.38-368.11-265.81-726.48-443.28-1070.24-237.61-460.26-509.88-897.33-910.28-1238.97-515.62-439.95-1019.9-454.39-1551.72-42.3-66.23 51.32-127.86 109.59-186.21 169.88-620.66 641.3-962.43 1435.93-1241.18 2264.78-8.56 25.45-15.18 55.09 32.88 94.07 796.36 0 1613.92 0 2465.12.03zM6663.83 13984.04c103.81 260.83 225.03 513.75 361.26 758.76 252.43 454.03 541.7 879.13 978.29 1181.19 417.32 288.73 830 293.69 1251.62 10.9 172.97-116.02 325.08-256.74 462.03-414.35 361.09-415.55 616.08-894.34 831.25-1396.09 109.35-255.01 218.98-510.84 288.61-796.16H6442.37c43.57 231.63 134.81 429.45 221.46 655.75zm-2485.99-669.58H2795.65c421.44 827.9 2875.92 2505.89 3489.69 2403.19-1.09-10.79 1.32-23.71-3.77-32.05-431.22-706.31-752.87-1460.74-987.81-2252.91-30.41-102.52-99.09-119.92-191.98-119.05-296.74 2.78-593.52.91-923.94.82zm8413.87-11082.91c-434.84-269.72-891.81-494.03-1374.09-665.47-63.57-22.6-131.76-71.98-206.19-.7 6.06 20.34 7.93 43.31 18.78 60.66 422.12 675.17 713.52 1407.44 941.91 2166.46 33.86 112.51 93.64 145.24 206.27 144.57 700.76-4.15 1401.57-1.55 2102.35-2.8 53.83-.09 111.26 14.54 161.98-18.73-119.77-330.1-1020.97-1153.14-1851.01-1683.99zm1009.2 11082.97c-448.68-.03-897.63 8.89-1345.91-4.52-177.04-5.29-258.72 49.2-309.16 220.45-217.82 739.38-514.46 1445.95-921.69 2103.19-17.22 27.81-42.12 53.95-30.33 91.68 675.15 48.74 3160.57-1668.45 3467.6-2410.81-281.23 0-554.05 0-860.51.01zM3874.95 3935.18c386.66-.04 773.69-10.1 1159.8 4.4 174.64 6.55 242.86-59.5 290.24-217.62 211.18-704.81 484.01-1384.29 869.88-2014.48 27.9-45.57 69.08-90.47 53.59-152.72-591.45-112.26-3044.61 1574.41-3440.66 2380.42h1067.15z" style="fill:#47ccff;fill-rule:nonzero"/></svg>
