<?xml version="1.0" encoding="UTF-8"?>
<!DOCTYPE svg PUBLIC "-//W3C//DTD SVG 1.1//EN" "http://www.w3.org/Graphics/SVG/1.1/DTD/svg11.dtd">
<!-- Creator: CorelDRAW -->
<svg xmlns="http://www.w3.org/2000/svg" xml:space="preserve" width="79.2616mm" height="17.2238mm" version="1.1" style="shape-rendering:geometricPrecision; text-rendering:geometricPrecision; image-rendering:optimizeQuality; fill-rule:evenodd; clip-rule:evenodd"
viewBox="0 0 3618.19 786.24"
 xmlns:xlink="http://www.w3.org/1999/xlink"
 xmlns:xodm="http://www.corel.com/coreldraw/odm/2003">
 <defs>
  <style type="text/css">
   <![CDATA[
    .fil0 {fill:#00A2E9}
    .fil1 {fill:#615D5C}
    .fil2 {fill:#709545}
   ]]>
  </style>
 </defs>
 <g id="Layer_x0020_1">
  <metadata id="CorelCorpID_0Corel-Layer"/>
  <g id="_2134060255248">
   <path class="fil0" d="M642.14 219.52c9.7,4.64 36.54,34.22 44.82,42.52l125.41 125.91c13.69,13.75 76.36,74.82 83.04,84.55 24.81,36.12 -34.93,98.98 -74.11,60.83 -16.49,-16.05 -27.89,-27.71 -43.41,-42.53 -13.37,-12.76 -30.97,-27.48 -42.33,-41.44l-126.96 -124.35c-14.84,-14.18 -28.02,-26.77 -42.89,-40.9 -34.09,-32.42 -55.61,-53.12 -115.94,-52.14 -64.78,5.98 -110,43.16 -133.43,84.67 -30.88,54.71 -25.73,122.02 12.45,162.6 35.08,37.29 72.35,72.84 108.8,109.45l163.9 164.57c14.09,14.15 35.35,41.9 71.15,30.16 24.11,-7.91 46.85,-39.14 30.25,-72 -7.95,-15.74 -142.84,-147.21 -160.95,-165.39 -18.88,-18.94 -36.13,-36.26 -55,-55.23 -9.7,-9.75 -17.79,-17.88 -27.49,-27.62l-24.76 -27.06c-9.33,-4.71 -19.94,-16.53 -26.84,-25 -25.96,-31.92 21.09,-82.53 57.73,-73.1 13.06,3.36 21.51,14.8 28.85,21.79 13.98,13.31 65.45,60.73 72.8,73.38 10.6,4.62 104.8,100.38 123.56,118.26l61.03 60.16c16.41,15.9 49.46,35.27 83,38.29 103.47,9.34 188.86,-95.62 168.59,-188.31 -7.86,-35.93 -26.7,-56.08 -44.91,-74.34l-302.5 -303.75c-72.51,-73.11 -155.07,-108.92 -261.09,-63.19 -25.92,11.18 -58.42,30.39 -74.85,46.41l-122.44 120.07c-10.94,10.72 -20.28,19.84 -31.2,30.53 -5.61,5.5 -8.96,10.81 -14.43,16.42 -37.19,38.04 -107.38,101.26 -136.91,134.26 -40.35,45.09 7.52,106.06 58.28,84.69 14.76,-6.21 136.85,-130.45 154.35,-147.6 36.37,-35.63 151.66,-158.3 185.87,-177.87 95.31,-54.53 147.23,8.09 200.76,61.9 5.38,5.41 25.96,23.67 27.79,30.37z"/>
   <path class="fil0" d="M1727.36 259.17c-1.69,-8.96 -1.58,-15.05 -2.47,-23.83 -1.27,-12.6 -1.93,-10.45 -14.93,-10.32 -17.67,0.18 -35.3,0.18 -52.98,0.18l1.03 255.21 77.79 -0.08c0.03,-25.73 -3.74,-152 3.81,-170.9 12.48,-31.2 55.73,-37.5 68.94,-2.99 8.66,22.65 4.99,144.93 4.97,173.73l77.8 0.25c0.04,-39.03 0,-78.05 0,-117.06 0,-36.4 -2.39,-78.8 38.8,-80.05 39.81,-1.21 38.98,43.37 38.96,77.84 -0.02,39.75 0.01,79.5 0,119.24l77.8 -0.02c-0.07,-57.22 8.66,-178.54 -15.25,-220.77 -13.81,-24.39 -37.93,-42.54 -77.32,-40.5 -44.71,2.31 -55.94,23.83 -77.07,42.53 -11.74,-14.68 -9.91,-19.72 -26.62,-30.39 -32.41,-20.72 -80.55,-14.48 -108.99,11.89 -6.11,5.66 -7.25,11.1 -14.27,16.03z"/>
   <path class="fil1" d="M3468.15 283.03c75.16,-26.25 93.86,114.92 32.99,137.2 -39.36,14.41 -66.88,-14.66 -67.53,-50.16 -0.76,-41.93 -2.55,-74.09 34.54,-87.04zm-116.93 168.77c2.59,9.13 0.94,18.43 0.51,28.53l67.83 -0.03 3.06 -34.91c17.14,17.55 28.21,38.65 72.59,40.6 86.07,3.79 131.61,-76.94 121.63,-160.91 -1.9,-15.95 -10.34,-36.24 -10.73,-45.9 -9.44,-8.31 -22.31,-49.63 -76.59,-58.31 -51.72,-8.27 -71.3,12.62 -95.88,34.03l-0.01 -145.45 -80.87 -0.94c3.32,22.87 1.01,62.55 1.01,87.28 0,28.67 0,57.33 0,86 0,26.25 3.84,157.29 -2.55,170.02z"/>
   <path class="fil1" d="M3043.18 225.52l-74.05 -0.16c-16.84,59.26 -25.8,125.42 -37.47,187.42 -9.28,-38.73 -35.13,-157.2 -46.03,-187.51l-62.05 0.02c-10.92,31.72 -45.12,182.74 -47.11,186.35 -2.61,-5.56 -27.95,-154.84 -36.4,-186.36l-76.01 -0.06c-8.18,2.43 -2.1,9.46 3.61,28.78 3.15,10.66 6.18,21.55 9.49,32.4 16.54,54.08 44.64,144.97 56.68,193.99l75.87 -0.01c4.46,-23.92 15.68,-56.39 22.74,-80.8 8.65,-29.93 12.29,-56.53 19.32,-86.86l19.07 84.17c6.73,26.12 17.77,58.02 22.24,83.47l75.35 0.03c8.13,-34.47 56.73,-187.24 74.24,-241.18 2.76,-8.48 6,-11.06 0.49,-13.69z"/>
   <path class="fil0" d="M2387.37 479.33l79.92 1.05c0.03,-26.79 -4.53,-154.95 5.3,-174.01 6.16,-11.93 18.78,-22.44 37.19,-22.57 41.92,-0.31 41.57,39.06 41.55,77.37 -0.01,39.75 -0.01,79.5 0,119.24l79.89 0c0.11,-55.21 7.71,-174.21 -13.62,-216.15 -21.86,-42.96 -74.52,-56 -118.13,-34.7 -14.74,7.2 -21.24,16.01 -31.66,25.44l-0.55 -144.88 -79.92 -0.62 0.01 369.84z"/>
   <path class="fil0" d="M1595.3 449.14c-7.31,-16.36 -3.52,-189.76 -3.41,-222.66l-77.14 0c-0.07,21.72 2.77,144.71 -1.43,153.85 -0.8,45.22 -71.59,65.32 -81.47,1.15 -7.21,-46.83 4.2,-110.77 -2.34,-157.76 -16.18,4.44 -58.6,1.25 -78.22,1.56 -4.01,29.7 -0.71,85.73 -0.72,118.24 0,60.78 0.78,145.83 94.68,142.48 17.37,-0.62 33.05,-5.48 46.02,-12.67 15.68,-8.7 19.61,-18.89 31.6,-28.44l3.75 35.49 69.34 0.01 -0.65 -31.26z"/>
   <path class="fil0" d="M2246.06 360.42c9.12,82.83 -53.35,74.36 -65.84,61.42 -25.7,-26.59 4.86,-68.31 65.84,-61.42zm-134.22 -117.8l14.36 49.78c22.05,-9.41 37.31,-17.5 66.27,-18.5 30.02,-1.05 51.5,6.21 51.2,36.37 -75.12,0.86 -158.5,23.89 -150.07,105.97 3.61,35.12 28.3,60.05 60.21,67.34 44.5,10.17 74.3,-7.93 95.91,-27.85 3.98,5.91 5.17,17.69 6.06,24.67l71.98 0c-8.83,-65.86 9.59,-181.87 -25.05,-225.18 -47.32,-59.15 -165.51,-33.09 -190.88,-12.61z"/>
   <path class="fil1" d="M3137.41 323.85c3.64,-28.03 18.52,-50.13 46.76,-51.52 32.24,-1.59 46.32,20.88 47.7,51.52l-94.46 -0zm150.77 117.87l-4.51 -12.71c-0.84,-4.24 -1.42,-8.59 -2.09,-12.94 -36.67,7.65 -135.47,31.52 -143.59,-37.89l164.71 -0.1c11.12,-39.99 -2.3,-87.55 -20.39,-115.01 -18.74,-28.45 -54.2,-44.58 -102.48,-43.27 -104.15,13.19 -135.57,109.89 -110.39,185.66 34.8,104.74 183.75,85.18 221.13,63.75 0.1,-10.58 -4.16,-18.93 -2.39,-27.49z"/>
   <path class="fil0" d="M1223.56 272.04l-3.95 -46.46 -67.18 -0.42 1.1 255.24 79.9 -0.04c-0,-43.52 -1.52,-89.57 0.06,-132.53 1.68,-45.71 32.3,-58.22 77.58,-52.89l0.08 -74.69c-25.66,-2.98 -40.21,0.1 -58.03,12.63 -21.03,14.78 -22.45,32 -29.56,39.16z"/>
   <path class="fil2" d="M2669.79 590.34c48.03,-12.35 51.79,77.74 12.94,84.83 -23.71,4.33 -38.08,-13.25 -40.58,-34 -3.11,-25.74 5.83,-45.22 27.64,-50.83zm36.08 -4.14c-5.4,-5.84 -11.64,-10.16 -20.7,-12.35 -65.15,-15.76 -89.35,86.96 -36.12,113.31 28.28,14 45.42,-1.37 58.87,-13.51 0.77,56.22 -25.89,61.53 -72.86,44.22l-4.54 17.01c127.05,41.44 95.31,-78.87 99.55,-159.89 -22.05,-0.12 -18.76,-2.03 -19.62,16.33l-4.58 -5.12z"/>
   <path class="fil2" d="M2012.68 689.71c0,-34.95 -12.03,-98.59 29.91,-99.34 37.16,-0.67 27.46,57.83 27.49,102.25l21.42 0.01c0.03,-41.15 13.46,-126.17 -46.58,-119.73 -19.76,2.12 -23.11,11.72 -32.21,19.08l-0.12 -72.02 -21.3 -0.01 -0.03 172.68 21.43 -2.92z"/>
   <path class="fil1" d="M1187.49 610c1.23,-16.22 6.29,-37.29 9.41,-54.08 2.54,-13.65 5.17,-12.9 21.38,-12.13 50.77,2.4 41.25,75.45 -30.79,66.21zm-2.31 17.3c21.86,0.71 40.47,0.33 57.84,-9.81 30.86,-18.03 40.44,-71.04 0.9,-85.81 -15.34,-5.72 -46.97,-6.29 -61.83,0.65l-30.29 160.28c19.97,0 19.66,3.01 22.72,-15.88 1.97,-12.17 6.35,-41.77 10.67,-49.44z"/>
   <path class="fil1" d="M1357.44 589.43c0.75,1.73 0.91,1.54 1.17,5.4l-4.67 27.64c-9.85,49.85 -42.95,67.4 -57.52,50.75 -13.72,-15.68 -2.26,-46.94 7.41,-61.04 9.27,-13.53 27.45,-27.98 53.61,-22.76zm8.5 103.18c-0.23,-44.46 11.57,-75.59 16.71,-116.73 -28.48,-4.19 -48,-7.22 -72.55,7.27 -15.85,9.35 -30.71,27.21 -36.93,49.06 -6.78,23.81 -3.59,51.91 17,60.52 32.08,13.43 57.29,-25.05 57.31,-25.13 0.24,-0.92 0.92,-0.97 1.46,-1.39l-1.89 26.41 18.9 -0z"/>
   <path class="fil2" d="M2953.34 589.93c50.68,-12.89 57.73,74.96 18.1,87.6 -49.66,15.84 -63.66,-76.01 -18.1,-87.6zm64.2 57.88c17.5,-84.34 -96.38,-102.76 -112,-29.71 -18.68,87.37 96.32,105.31 112,29.71z"/>
   <path class="fil2" d="M2140.68 645.61c-11.47,-62.37 58.55,-78.88 69.04,-23.92 11.73,61.44 -58.72,80.03 -69.04,23.92zm-22.45 -2.2c7.63,76.03 123.97,67.74 113.98,-19.86 -8.56,-75.13 -122.71,-67.14 -113.98,19.86z"/>
   <path class="fil2" d="M3417.25 589.27c49.75,-10.53 55.58,78.4 15.28,88.71 -50.97,13.04 -61.02,-79.04 -15.28,-88.71zm-19.23 -11.91c-1.61,2.06 -11.01,8.12 -14.61,11.75 -36.34,36.6 -14.22,117.85 51.81,104.9 57.11,-11.19 67.77,-105.27 -1.95,-121.17 -15.44,-0.52 -21.92,1.34 -35.24,4.52z"/>
   <path class="fil2" d="M2514.92 692.63c0.01,-36.64 -10.57,-99.99 28.02,-102.41 39.28,-2.46 29.34,56.12 29.35,101.95l21.45 0.45c0.02,-47.68 12.57,-124.9 -46.41,-119.82 -21.63,1.86 -24.93,12.58 -34.71,20.07l-1.04 -17.74 -18.38 -0.21 0.3 117.72 21.42 0z"/>
   <path class="fil2" d="M3603.82 592.8c-16.04,-11.4 -10.35,-20.18 -42.69,-20.15 -23.39,4.98 -19.49,9.06 -33.52,19.62l-1.34 -17.35 -18.37 -0 0.33 117.83 21.4 -0.96c0.02,-34.35 -12.14,-100.24 29.32,-101.6 37.87,-1.25 28.06,55.51 28.06,102.45l21.41 -0c0.01,-17.88 -0.02,-35.75 0.01,-53.63 0.06,-37.02 -4.32,-36.16 -4.62,-46.2z"/>
   <path class="fil2" d="M3202.9 575.05l-22.54 0.43c-0.05,45.7 9.97,100.39 -29.22,101.88 -36.89,1.41 -27.11,-57.91 -27.23,-102.09l-22.4 -0.35c6.55,37.48 -17.75,124.79 45.32,120.17 21.69,-1.59 27.16,-13.53 35.77,-19.68l1.6 16.82 18.42 0.4c-1.1,-24.55 -3.85,-97.04 0.27,-117.57z"/>
   <path class="fil1" d="M1490.82 575.07l-17.46 1.13 -21.21 116.27 19.95 0.16c5.07,-39.02 11.65,-92.73 43.6,-102.3 43.58,-13.06 17.06,61.98 11.36,102.16l19.96 0.14c3.07,-22.93 18.39,-79.04 13.66,-98.72 -5.98,-24.86 -34.45,-27.12 -56.44,-12.74l-11.72 10.45c-3.88,4.08 -0.25,0.78 -3.91,3.59l2.2 -20.14z"/>
   <path class="fil1" d="M1661.73 625.22c2.78,-18.75 31.43,-50.43 51.12,-33.44 11.56,9.97 1.75,24.8 -10.26,29 -11.92,4.17 -27.63,4.61 -40.86,4.44zm-3.14 15.62c33.9,0.05 77.6,-1.97 78.37,-37.13 0.85,-38.32 -45.35,-37.15 -69.81,-18.34 -36.33,27.93 -57.59,136.46 54.45,101.87l-2.05 -14.27c-10.24,-0.33 -62.11,26.97 -60.96,-32.13z"/>
   <path class="fil2" d="M2318.04 594.23c4.11,-4.72 3.83,-7.71 5.9,-14.31 -44.17,-25.86 -93.41,19.62 -56.71,50.36 13.22,11.07 41.55,12.09 40.39,32.89 -1.42,25.47 -35.56,13.2 -51.28,8.43l-4.3 16.03c69.93,26.76 88.3,-24.71 69.64,-47.83 -11.46,-14.19 -39.31,-17.52 -44.38,-28.6 -7.37,-16.07 8.43,-31.22 40.74,-16.97z"/>
   <path class="fil2" d="M2880.18 578.9c-64.36,-23.69 -86.17,32.12 -56.05,52.12 14.42,9.57 41.55,12.56 39.85,31.91 -2.09,23.69 -34.33,15.19 -50.91,8.95l-4.75 16.59c20.3,5.6 40.02,12.6 61.27,-0.41 16.85,-10.32 20.37,-35.61 7.29,-50.27 -10.54,-11.81 -40.53,-15.22 -44.22,-28.61 -3.27,-11.85 4.95,-19.1 14.74,-20.47 11.21,-1.57 20.02,3.41 28.34,6.08l4.43 -15.88z"/>
   <path class="fil2" d="M2342.68 590.8l17.93 1.19c3.15,42.37 -16.12,119.36 48.28,100.97 2.91,-5.82 2.16,-4.25 1.52,-16.42 -23.87,2.4 -28.53,-3.15 -28.53,-26.53l0.76 -58.74 29.9 -0.45 -0.02 -15.81 -30.48 -0.14 -0.79 -27.93 -20.27 6.98 -0.26 20.88 -17.99 0.54 -0.03 15.45z"/>
   <path class="fil2" d="M3293 676.99c-27.14,0.47 -29.98,-0.9 -30.02,-29.14 -0.02,-15.67 -1.43,-42.31 0.96,-56.51l29.77 -1.09 -0.01 -15.07 -30.53 -0.26 -0.56 -27.34 -20.47 5.83 -0.23 21.48 -18.02 0.06 -0.01 16.21 17.31 0.05c7.33,43.22 -20.03,118.76 50.4,101.64l1.41 -15.87z"/>
   <path class="fil1" d="M1825.23 576.72c-20.8,-5.03 -40.19,-6.56 -54.99,5.98 -14.18,12.02 -15.29,32.09 -3.6,45.63 9.56,11.08 33.85,15.77 28.8,36.54 -6.08,24.99 -43.49,9.43 -47.89,8.55l-4.51 14.22c53.4,24.44 85.09,-17.1 70.64,-44.56 -8.46,-16.07 -31.57,-19.85 -34.45,-33.83 -5.2,-25.18 24.97,-21.57 41.33,-16.53l4.67 -16.01z"/>
   <path class="fil1" d="M1915.95 576.57c-73.41,-15.52 -72.23,35.53 -59.78,50.42 10.16,12.15 33.11,16.1 30.37,36.12 -3.06,22.32 -30.1,15.36 -47.49,10.09l-5.3 13.95c39.22,21.65 89.84,-6.71 70.5,-44.25 -8.78,-17.05 -32.4,-18.98 -34.31,-34.96 -3.57,-29.76 39.83,-16.11 41.6,-16.11l4.42 -15.26z"/>
   <polygon class="fil2" points="3045.82,692.39 3067.27,692.42 3067.2,520.08 3058.6,519.95 3054.18,519.86 3045.83,520.41 "/>
   <polygon class="fil1" points="1634.46,520.09 1614.52,519.99 1582.04,692.55 1601.9,692.55 "/>
   <polygon class="fil2" points="3339.93,693.36 3339.16,577.25 3339.15,574.92 3317.8,574.93 3317.78,577.25 3317.77,692.49 "/>
   <polygon class="fil2" points="2436.6,692.63 2458.01,692.63 2457.99,574.91 2436.59,574.9 "/>
   <path class="fil1" d="M1412.19 692.62c5.06,-2.61 2.95,-0.79 5.28,-6.71l9.81 -51.9c3.71,-19.21 8.11,-39.63 10.93,-58.88l-19.71 -0.16 -22.28 117.66 15.96 -0z"/>
   <path class="fil0" d="M1513.31 380.33c4.2,-9.13 1.36,-132.13 1.43,-153.85l77.14 0c-0.11,32.9 -3.9,206.3 3.41,222.66l-1.04 -223.52 -80.36 -1.36 -0.59 156.07z"/>
   <path class="fil2" d="M2441.74 530.51c-5.42,2.36 -4.9,-1.18 -7.16,7.39 -3.7,14.01 10.18,21.41 20,15 12.13,-7.92 3.62,-29.58 -12.84,-22.39z"/>
   <path class="fil2" d="M3315.32 546.37c8.23,6.14 3.92,13.45 24.04,5.5 2.04,-7.5 1.99,-12.32 -0.06,-19.79l-16.26 -2.71c-5.74,5.14 -7.41,7.64 -7.72,17z"/>
   <path class="fil1" d="M1443.79 530.57c-25.67,-6.14 -25.2,16.84 -16.23,22.61 12.35,7.94 24.14,-5.75 16.23,-22.61z"/>
  </g>
 </g>
</svg>
