<svg xmlns="http://www.w3.org/2000/svg" xml:space="preserve" width="694.137" height="537.763" style="shape-rendering:geometricPrecision;text-rendering:geometricPrecision;image-rendering:optimizeQuality;fill-rule:evenodd;clip-rule:evenodd" viewBox="0 0 17913.53 13878"><path d="M10409.36 10329.66c298.96 0 541.34 242.37 541.34 541.34 0 298.96-242.37 541.34-541.34 541.34h-4789.3v1924.33c0 298.96-242.37 541.34-541.34 541.34-161.48 0-306.43-70.74-405.61-182.89L163.43 9291.61c-213.72-207.87-218.45-549.66-10.57-763.37l10.58-10.56 4538.89-4432.04c213.72-207.87 555.5-203.14 763.37 10.57 102.06 104.93 152.83 240.73 152.82 376.4h1.54v1924.32h7214.75c298.96 0 541.34 242.37 541.34 541.34v1182.57l3224.86-3148.94-3224.86-3148.94v1182.57c0 298.96-242.37 541.34-541.34 541.34H7504.18c-298.96 0-541.34-242.37-541.34-541.34 0-298.96 242.37-541.34 541.34-541.34h4789.3V539.86h1.54c-.01-135.67 50.76-271.47 152.82-376.4 207.87-213.72 549.66-218.45 763.37-10.57l4538.89 4432.04 10.57 10.57c207.87 213.72 203.14 555.5-10.57 763.37l-4509.67 4403.51c-99.18 112.15-244.13 182.89-405.61 182.89-298.96 0-541.34-242.37-541.34-541.34V7479.6H5078.73c-298.96 0-541.34-242.37-541.34-541.34V5755.7L1312.53 8904.63l3224.86 3148.94V10871c0-298.96 242.37-541.34 541.34-541.34h5330.63z" style="fill:#47ccff;fill-rule:nonzero"/></svg>
