<svg version="1.2" xmlns="http://www.w3.org/2000/svg" viewBox="0 0 1553 430" width="1553" height="430"><defs><clipPath clipPathUnits="userSpaceOnUse" id="cp1"><path d="m1552 0v430h-1552v-430z"/></clipPath></defs><style>.a{fill:#C2C8DF}.b{fill:#C2C8DF}</style><g clip-path="url(#cp1)"><path fill-rule="evenodd" class="a" d="m798.7 256.6h20.2l68.2 170h-38.8l-15.1-38.8h-34.5v-26.3h25.3l-25.3-71.1zm0 104.9h-25.3l24.4-70.9h0.9v-33.9h-19.4l-67.5 170h36.3l15.2-38.8h35.4z"/><path fill-rule="evenodd" class="a" d="m1014.5 288c-11.2-4.9-23.2-7.4-35.4-7.4-11.8 0-27.7 4.9-27.7 23.9 0 29 76.7 16.6 76.7 74.3 0 37.2-30.4 51.2-65.7 51.2-18.5 0-27-2.5-44.7-6.6l3.4-30.5c12.2 6.1 25.8 9.5 39.6 9.9 13.4 0 31.1-6.7 31.1-21.5 0-33.1-76.6-19-76.6-75.9 0-38 30.4-52 60.6-52 14.3 0 28.5 2.2 42.1 6.6z"/><path fill-rule="evenodd" class="a" d="m1105.5 283.9h-49.8v-27.2h134.8v27.2h-49.6v142.8h-35.4z"/><path fill-rule="evenodd" class="a" d="m1284 284.1c12.7 1.6 23.6 6.5 23.6 21.4 0 16.5-10.9 21.5-23.6 23.1v29.8c5.1 3.2 7.6 7.3 11 15.6l21.1 52.8h38.8l-27.9-66.1c-3.3-8.3-9.2-17.3-18.4-18 9.9-1.1 18.9-5.8 25.5-13.1 6.5-7.3 10-16.8 9.9-26.5 0-38.8-29.5-44.6-59.9-46.2zm-24.4 0h24.4v-27.1h-59.6v170h35.4v-70.4h10.7c4.5-0.5 9.2 0.1 13.5 1.6v-29.7c-4.5 0.7-9 0.9-13.5 0.7h-10.9z"/><path fill-rule="evenodd" class="a" d="m1463.5 256.6h20.3l68.2 170h-38.7l-14.3-38.8h-35.3l-0.2-26.3h25.3l-25.3-71.1zm0 131.3v-26.4h-25.2l25.2-70.9v-33.9h-19.3l-67.4 170h36.4l15.1-38.8h35.4z"/><path fill-rule="evenodd" class="a" d="m916.7 76.7c-42.9 3.2-126.4 15.6-194.6 27-67.4 11.6-101.3 19.9-129.7 26.4-75 17.4-188.8 49.6-249.5 67.7-52.9 17.6-193.8 74.5-198 73.7-1.7 0-6.8-4.9 0.8-9.9-14.3 9.9 205.6-180.7 566.2-228.6v-33h-711.9v378.8c219-86.6 460.1-120.5 711.9-120.5v-91.5l6-1.6c144.1-52.8 311.8-74.3 583.9-102.4v-9c-22.8 0-191.3 2.4-381.7 23.1z"/><path fill-rule="evenodd" class="b" d="m1301.8 48.7c-127.7-8.4-255.8-7.9-383.4 1.6-66.5 5-137.3 14.9-203 25.6-140 23.9-256.2 52.8-256.2 52.8 0 0-8.4 0-0.8-4.9 12.6-7.4 115.4-52.8 257-80.1q45.5-8.6 96-14.8c5.1 0 0-5.8 0-5.8-32.8 2.5-65.7 4.1-96.7 8.2-132.6 18.7-261.4 57.4-381.9 114.8-5 2.5 13.5-8.3-94.4 50.3 0 0-67.4 43.8-72.4 48.7-6.8 6.6 55.6-20.6 99.4-36.3 40.5-14 150-44.6 175.3-52 17.7-4.9 80-18.1 144.9-30.5 60.7-12.4 118.8-19.8 122.2-20.6h4.2c0 0 66.6-10 80-12.5 20.3-4.1 130.7-17.3 131.5-17.3 190.4-20.6 381.6-22.2 378.3-22.2z"/></g></svg>
