<?xml version="1.0" encoding="UTF-8"?>
<!DOCTYPE svg PUBLIC "-//W3C//DTD SVG 1.1//EN" "http://www.w3.org/Graphics/SVG/1.1/DTD/svg11.dtd">
<!-- Creator: CorelDRAW -->
<svg xmlns="http://www.w3.org/2000/svg" xml:space="preserve" width="142.136mm" height="41.4808mm" version="1.1" style="shape-rendering:geometricPrecision; text-rendering:geometricPrecision; image-rendering:optimizeQuality; fill-rule:evenodd; clip-rule:evenodd"
viewBox="0 0 4008.34 1169.79"
 xmlns:xlink="http://www.w3.org/1999/xlink"
 xmlns:xodm="http://www.corel.com/coreldraw/odm/2003">
 <defs>
  <style type="text/css">
   <![CDATA[
    .fil0 {fill:#C2C8DF}
   ]]>
  </style>
 </defs>
 <g id="Layer_x0020_1">
  <metadata id="CorelCorpID_0Corel-Layer"/>
  <g id="_2169800753312">
   <polygon class="fil0" points="3109.94,653.67 2981.5,653.67 2981.5,1158.38 3109.94,1158.37 "/>
   <path class="fil0" d="M2771.14 857.83c11.36,-56.99 52.81,-96.34 113.9,-96.34 15.63,0 27.01,2.07 37.38,4.19l0.01 -111.97c-10.37,-2.15 -17.63,0 -30.05,0 -53.9,0 -113.01,24.79 -137.85,96.29l-4.22 0 -4.1 -96.3 -110.93 0c3.13,45.54 4.17,94.32 4.17,162.72l0 341.97 127.57 0 0 -261.04c0,-14.56 2.05,-28.14 4.13,-39.52z"/>
   <polygon class="fil0" points="2549.43,1158.37 2549.43,653.67 2420.73,653.67 2420.73,1158.38 "/>
   <path class="fil0" d="M2330.6 1016.41l0 -565.53 -127.45 0 0 257.83 -2.07 -0.01c-22.77,-37.44 -72.57,-66.51 -141.95,-66.51 -121.26,0 -227.01,100.61 -225.99,269.62 0,155.52 95.38,257.97 215.58,257.97 73.48,0 134.78,-35.26 164.83,-91.14l2.12 0.01 5.09 79.73 114 -0.01c-2.03,-34.15 -4.15,-90.17 -4.15,-141.97zm-130.54 -185.5c2.02,10.37 3.09,22.81 3.09,33.11l0 75.67c0,13.46 -1.06,26 -4.14,37.42 -12.4,54.94 -58.05,90.22 -109.8,90.22 -80.88,0 -126.46,-67.45 -126.46,-159.7 0,-94.29 45.58,-166.88 127.45,-166.88 58.07,0 98.44,40.4 109.87,90.15z"/>
   <path class="fil0" d="M1777.96 1158.43l0 -299.57c0,-159.63 -91.18,-216.66 -179.37,-216.66 -83.87,0 -138.88,47.82 -160.64,87.13l-3.07 0 -6.25 -75.65 -111.82 0c3.01,43.48 4.17,92.22 4.17,150.31l0 354.44 128.41 0 0 -296.53c0,-14.35 1.11,-29.93 5.16,-41.39 13.55,-38.39 48.71,-74.61 99.5,-74.61 69.4,0 96.37,54.96 96.37,127.53l0 285 127.53 0z"/>
   <path class="fil0" d="M1232.79 1037.19l0 -182.47c0,-109.82 -46.59,-212.53 -208.29,-212.53 -79.8,0 -145.16,21.83 -182.46,44.71l24.91 82.89c34.13,-21.75 86.03,-37.38 135.82,-37.38 89.04,0 102.54,54.94 102.54,88.12l0 8.3c-186.58,-1.01 -299.47,63.19 -299.47,190.67 0,76.86 56.96,150.3 158.58,150.3 65.24,0 118.07,-27.95 149.11,-67.35l3.23 0 8.27 56 115.08 0c-5.23,-31.25 -7.33,-75.65 -7.33,-121.23zm-124.34 -125.38l0 69.43c0,8.25 -1.09,18.67 -4.22,27.97 -11.29,36.27 -48.69,69.43 -99.39,69.43 -40.42,0 -72.56,-22.88 -72.56,-72.56 0,-76.76 85.97,-96.39 176.17,-94.27z"/>
   <path class="fil0" d="M748.28 1158.42l0 -297.4c0,-161.79 -84.91,-218.82 -168.76,-218.82 -41.53,0 -73.7,10.46 -101.67,30.14 -23.78,14.57 -44.47,35.21 -62.17,63.23l-2.12 0.01c-21.75,-55.9 -73.55,-93.38 -139.9,-93.38 -84.99,0 -130.63,46.66 -155.5,86.11l-3.07 0 -5.16 -74.64 -109.92 0c3.13,43.48 4.24,92.22 4.24,150.31l0 354.44 124.23 0 0 -298.51c0,-14.52 2.19,-28.99 7.35,-41.53 11.4,-35.19 43.49,-72.5 91.18,-72.49 59.06,0 87.01,49.78 87.01,120.25l0 292.28 124.41 0 0 -302.71c0,-14.44 3.13,-29.97 6.25,-42.39 13.39,-36.3 45.58,-67.43 89.21,-67.43 61.07,0 90.05,49.78 90.05,133.7l0 278.83 124.34 -0.01z"/>
   <path class="fil0" d="M1637.66 449.67c40.25,49.89 130.89,88.56 209.57,43.41 0,0 290.59,-168.27 291.6,-168.74 125.71,-68.98 222.71,-68.98 286.98,-43.3 57.81,24.34 108.06,85.15 108.06,85.15 0,0 65.73,81.45 77.28,95.69 37.38,46 99.2,27.95 99.2,27.95 0,0 22.83,-2.64 57.53,-23.14 0,0 281.4,-163.16 281.56,-163.21 89.42,-52.44 171.43,-62.22 213.27,-58.4 131.2,11.95 172,103.6 228.94,167.52 33.49,37.68 63.68,58.99 109.9,57.91 30.42,-0.68 64.72,-19.04 69.79,-22.34l337.02 -194.55c0,0 -34.53,-52.04 -105.33,-133.12 -63.42,-72.24 -130.73,-39.62 -184.47,-12.99 -22.51,11.12 -104.22,65.52 -185.19,103.43 -57.7,27.03 -140.52,18.85 -185.93,-37.24 -2.76,-3.4 -76.17,-92.34 -83.95,-103.3 -47.68,-59.79 -168.27,-109.38 -312.37,-26.92 -77.21,44.69 -259.15,149.09 -327.17,187.93 -41.34,21.09 -137.31,30.31 -191.51,-42.92 -0.89,-1.2 -72.12,-90.08 -74.97,-93.5 -2.1,-2.4 -48.1,-70.63 -150.65,-72.73 -15.08,-0.38 -90.41,-0.82 -164.01,40.96 -97.6,55.83 -324.74,185.69 -324.74,185.69 -0.17,0 -0.17,0.12 -0.17,0.12 -93.38,53.45 -166.2,94.95 -166.2,94.95l85.97 105.68z"/>
  </g>
 </g>
</svg>
