<?xml version="1.0" standalone="no"?>
<!DOCTYPE svg PUBLIC "-//W3C//DTD SVG 20010904//EN"
 "http://www.w3.org/TR/2001/REC-SVG-20010904/DTD/svg10.dtd">
<svg version="1.0" xmlns="http://www.w3.org/2000/svg"
 width="2550.000000pt" height="1977.000000pt" viewBox="0 0 2550.000000 1977.000000"
 preserveAspectRatio="xMidYMid meet">

<g transform="translate(0.000000,1977.000000) scale(0.100000,-0.100000)"
fill="#000000" stroke="none">
<path d="M12952 19129 c-276 -13 -580 -47 -852 -95 -545 -95 -1122 -320 -1885
-734 -93 -51 -260 -140 -370 -197 -272 -144 -429 -235 -630 -368 -1451 -955
-2408 -2457 -2625 -4117 -42 -325 -57 -674 -41 -962 5 -103 11 -190 13 -191 2
-2 238 65 526 148 l522 152 -7 80 c-5 44 -8 260 -8 480 1 416 10 561 56 895
118 853 426 1665 899 2375 138 206 419 575 439 575 4 0 19 -64 35 -142 629
-3228 1949 -6239 3958 -9028 83 -115 97 -129 128 -134 19 -3 141 -11 270 -17
297 -14 524 -4 738 33 l63 10 -128 132 c-312 319 -671 738 -1058 1236 -140
181 -682 899 -699 928 -5 8 6 18 36 31 24 10 157 71 296 135 935 431 1539 754
2067 1105 104 69 194 129 198 132 5 4 -28 109 -73 235 -104 292 -147 398 -201
506 l-44 87 -100 -76 c-703 -530 -1504 -1031 -2190 -1368 -320 -157 -388 -186
-401 -172 -20 21 -274 421 -411 647 -169 281 -380 649 -592 1038 -133 245
-171 322 -171 351 l0 36 223 94 c661 280 1293 603 1857 949 291 179 776 509
786 536 10 27 -471 855 -497 856 -3 0 -50 -35 -105 -77 -776 -603 -1622 -1171
-2330 -1566 -172 -96 -197 -107 -241 -107 l-50 0 -53 113 c-337 719 -688 1627
-945 2448 -118 378 -315 1079 -315 1122 0 21 412 441 585 595 77 69 197 171
268 227 l127 103 501 141 c275 78 506 141 513 139 7 -2 82 -82 166 -178 1011
-1159 1907 -2418 2663 -3746 390 -683 786 -1479 1110 -2229 452 -1047 877
-2280 1152 -3348 l28 -108 45 43 c81 78 224 250 284 341 75 114 122 214 154
326 l25 89 -137 418 c-163 498 -234 697 -321 899 -36 83 -89 209 -118 280 -29
72 -98 225 -154 342 -55 116 -118 256 -140 312 -40 102 -79 237 -71 244 3 2
79 59 170 127 520 390 1066 841 1539 1275 90 82 177 161 193 175 l30 25 -11
135 c-21 245 -63 450 -136 660 -42 119 -118 295 -159 364 -39 66 -65 63 -135
-17 -229 -261 -655 -702 -956 -990 -405 -389 -986 -904 -1006 -892 -5 3 -149
241 -321 528 -353 592 -538 892 -698 1133 -60 92 -110 171 -110 175 0 4 60 54
133 110 542 423 1169 1003 1751 1622 l128 137 -88 107 c-116 143 -317 342
-429 426 -49 37 -145 95 -213 129 -105 52 -125 59 -136 47 -7 -8 -60 -66 -117
-129 -500 -555 -1132 -1177 -1542 -1519 -48 -41 -89 -72 -91 -70 -1 2 -85 108
-186 234 -691 865 -1270 1521 -1958 2216 -156 158 -279 289 -274 293 39 24
498 88 766 107 224 15 809 7 1006 -15 521 -59 1018 -177 1440 -343 979 -385
1938 -1136 2618 -2048 453 -607 774 -1265 931 -1905 36 -147 91 -446 120 -650
139 -979 54 -1939 -249 -2815 -148 -428 -368 -870 -625 -1261 -368 -557 -857
-1078 -1403 -1495 -101 -76 -108 -80 -270 -133 -485 -159 -941 -250 -1492
-298 -215 -19 -772 -15 -1000 6 -1213 112 -2240 524 -3115 1250 -123 102 -515
487 -515 506 0 5 10 10 23 10 39 0 464 89 677 141 253 62 700 190 1045 300
143 45 283 88 310 97 28 8 54 18 58 22 5 4 -40 84 -99 176 -59 93 -130 210
-157 261 l-48 92 -52 -21 c-474 -190 -1200 -436 -1722 -582 -1594 -446 -3263
-657 -4870 -616 -197 5 -361 8 -362 6 -4 -4 473 -54 677 -71 807 -66 1837 -77
2735 -30 154 8 285 15 291 15 6 0 60 -57 120 -127 489 -573 1162 -1107 1837
-1458 595 -309 1257 -493 2042 -567 188 -18 892 -18 1080 0 975 92 1819 366
2510 816 61 40 151 90 200 111 50 22 162 76 250 121 723 368 1397 906 1921
1534 124 149 373 483 469 630 220 335 408 725 545 1126 354 1035 424 2207 195
3279 -89 415 -239 854 -404 1183 -88 176 -432 754 -528 891 -369 518 -834 990
-1333 1354 -1071 780 -2391 1164 -3768 1096z"/>
<path d="M9705 13203 c-45 -24 -386 -175 -578 -254 -1406 -584 -2974 -971
-4527 -1118 -118 -12 -231 -23 -250 -25 -19 -2 244 -3 585 -1 613 4 790 9
1325 41 151 8 290 16 309 17 l34 2 24 -130 c98 -531 270 -1050 502 -1516 97
-194 267 -488 287 -496 13 -5 437 74 714 133 280 60 570 136 570 151 0 3 -22
35 -49 72 -329 445 -650 1114 -827 1720 -36 124 -29 252 14 265 10 3 80 17
157 31 524 98 1084 235 1541 376 165 51 471 156 483 165 2 2 -54 134 -125 294
-89 203 -133 290 -143 290 -9 -1 -29 -8 -46 -17z"/>
<path d="M11900 5294 c-3730 -66 -7126 -419 -10381 -1079 -328 -67 -380 -79
-299 -70 195 22 1219 122 1575 154 6000 544 12623 558 19105 41 670 -54 1515
-129 2135 -190 110 -11 223 -22 250 -25 124 -12 -864 191 -1455 299 -2714 495
-5428 767 -8525 856 -344 10 -2062 20 -2405 14z"/>
<path d="M8314 3559 c-672 -49 -1133 -447 -1264 -1088 -60 -297 -40 -688 49
-952 161 -476 512 -770 1031 -864 124 -22 435 -31 577 -16 193 20 414 84 646
186 l107 47 -2 337 -3 336 -33 3 c-28 3 -46 -7 -120 -66 -270 -215 -479 -303
-722 -303 -63 0 -140 5 -170 11 -252 48 -427 181 -535 405 -29 61 -60 139 -69
175 -50 213 -46 483 10 678 80 277 273 474 531 544 103 27 316 30 414 5 156
-38 333 -134 520 -280 89 -69 105 -78 137 -75 l37 3 0 343 0 344 -124 55 c-69
30 -163 67 -210 83 -222 72 -548 108 -807 89z"/>
<path d="M4080 3260 l0 -250 230 0 230 0 0 -915 0 -915 -230 0 -230 0 0 -250
0 -250 828 2 827 3 3 247 2 248 -235 0 -235 0 0 915 0 915 235 0 235 0 0 250
0 250 -830 0 -830 0 0 -250z"/>
<path d="M11561 3488 c-48 -127 -1025 -2777 -1029 -2790 -4 -17 18 -18 361
-18 l366 0 19 53 c10 28 55 157 98 284 l79 233 525 0 525 0 96 -283 97 -282
376 -3 c207 -1 376 -1 376 1 0 3 -975 2648 -1027 2785 l-16 42 -419 0 -418 0
-9 -22z m589 -1200 c91 -264 166 -489 168 -500 3 -17 -12 -18 -337 -18 -260 0
-341 3 -341 12 0 17 334 988 340 988 3 0 79 -217 170 -482z"/>
<path d="M14710 2095 l0 -1415 333 2 332 3 5 961 5 961 595 -963 595 -964 353
0 352 0 0 1415 0 1415 -335 0 -335 0 -2 -805 -3 -806 -512 803 -511 803 -436
3 -436 2 0 -1415z"/>
<path d="M18850 2095 l0 -1415 333 2 332 3 5 962 5 962 558 -902 c306 -496
575 -930 597 -964 l39 -63 351 0 350 0 0 1415 0 1415 -335 0 -335 0 -2 -804
-3 -805 -511 802 -511 802 -436 3 -437 2 0 -1415z"/>
</g>
</svg>
