<svg xmlns="http://www.w3.org/2000/svg" xml:space="preserve" width="290.638" height="291.079" style="shape-rendering:geometricPrecision;text-rendering:geometricPrecision;image-rendering:optimizeQuality;fill-rule:evenodd;clip-rule:evenodd" viewBox="0 0 7942.84 7954.9">
    <defs>
        <style>
            .fil2{fill:#085493}.fil1{fill:#cecfc9}.fil4{fill:#fdfdfd}.fil3{fill:#fefefe}
        </style>
    </defs>
    <g id="Layer_x0020_1">
        <g id="_1936669765808">
            <path d="m4054.1 7127.83 91.79-3.19 8.19 292.71.01 39.47-31.91.19-59.44.08-8.65-329.25zm-613.05 183.62c-70.77 158.1-391.55 48.87-283.52-177.78 72.82-152.79 349.36-145.15 304.09 136.78l-234.16-54.31c-4.95 57.12 17.13 97.94 78.67 99.45 45.94 1.13 62.94-52.5 134.93-4.13zm1526.05-90.18c-13.71 198.94-322.75 205.11-334.05-23.04-11.13-224.85 312.4-238.28 329.02-19.31l-227.83 54.68c19.68 74.06 73.52 77.67 119.46 52.9 47.58-25.67 7.92-62.14 113.4-65.23zm-1126.4-198.33 91 5.29-2.72 98.21 65.4 3.51-3.04 60.77-66.2-2.52c-9.07 203.51-25.56 200.86 55.61 201.2l-4.5 71.12c-226.07 9.09-135.38-103.6-144.42-274.95l-52.34-10.26 1.5-56.1 55.17 1.95 4.53-98.22zm626.15 76.73c25.63-13.67 59.54-16.85 88.96-16.24l51.42 318.79c-21.01 11.1-55.87 14.99-84.17 16.54-17.41-34.04-51.49-265.03-56.21-319.09zm-959.43 319.79c-6.24-37.47 28.6-268.25 36.78-327.14l84.65 9.06-.49 41.5c.08 1.08.92 6.2 1 5.21.09-.99.65 3.46 1.24 5.11 28.16-34.85 55.63-53.44 125.13-43.97l-9.16 83.78c-72.28 1.81-106.61-14.3-127.74 61.27-45.83 163.85 37.85 187.81-111.41 165.18zm543.29-418.12 91.91 1 .57 73.62-90.26 2.65-2.22-77.27zm193.61 115c19.88-72.22-12.58-133.38 153.43-133.52l3.06 63.91c-18.2 6.3-43.61 9.05-59.21 16.09l-1.25 48.06 62.91-5.25 5.69 61.09-61.82 8.81 23.01 264.68-91.06 8.6-24.16-265.18-54.69-.46-3.54-53.25 47.63-13.58zm290.98-157.63 11.6 72.42-90.74 14.42-12.05-75.52 91.2-11.32zm-1436.42 193.16c-100.23 231.5-482.69 90.33-377.72-197.66 97.53-267.54 466.5-183.6 422.85 78.54l-89.19-32.6c-2.13-38.25-6.96-69.12-28.51-90.38-137.14-135.31-321.46 167.61-164.68 255.55 76.48 42.91 115.25-7.25 148.55-49.8l88.7 36.34zm2103.34-401 165.85 422.86-73.51 29.69-22.69-25.62c-73.74 139.2-226.59 91.29-275.55-29.33-55.87-137.63 31.47-268 177.05-217.43l-57.95-148.29 86.8-31.88zM814.67 4167.19l3.86 69.29-426.69 26.34-6.06-67.22 428.89-28.4zM3799 1288.71c418.23-27.87 804.53 43.41 1158.83 179.95 220.24 84.87 468.1 224.35 647.84 365.75 141.88 111.61 273.82 227.21 392.16 363.98 144.62 167.15 270.56 350.9 373 550.03 477.85 928.82 368.86 2052.79-257.66 2870.55-23.97 31.29-50.28 65.47-74.42 92.08-163.13 179.89-200.76 230.72-429.01 410.43-397.39 312.88-929.62 517.53-1468.82 549.81-1545.64 92.53-2772.94-1087.89-2862.36-2521.21-25.83-414.19 43.76-805.54 180.99-1157.68 228.52-586.46 711.52-1138.19 1279.91-1413.03 334.39-161.69 635.02-262.39 1059.54-290.66zM538.11 4057.43c-19.5-28.37-49.43-38.78-47.68-96.54 3.82-126.32 141.17-98.5 319.3-98.47l-2.63 65.85c-126.69 0-268.69-25.06-260.77 61.49 8.48 92.66 181.34 61.75 265.13 61.77l-3.14 65.15-309.11 2.91.24-62.16h38.66zm6592.77-126.93c68.55 0 216.76 12.38 257.99-20.78 25.41-131.49-158.51-91.02-260.23-91.03l3.39-64.91 307.88-1.15-.88 56.85-30.31 16.83c12.28 7.84 22.09 12.46 31.64 31.02 7.21 14.02 10.14 33.93 9.55 50.09-1.6 43.81-18.43 54.13-43.46 76.03 66.81 76.57 54.72 157.16-10.72 180.22-34.85 12.28-212.84 8.87-263.43 8.87l1.22-65.86c75.39 0 194.36 12.09 251.81-14.15 23.24-58 4-95.23-64.59-98.18-60.77-2.61-128.32.06-189.86.06v-63.92zM505.12 3788.43c-95.97-9.1-125.31-20.86-108.18-130.12l56.27.5c-9.86 60.17-6.81 59.71 55.78 64.02 3.02-39.23-1.33-33.07 12.92-53.22l30.24 1.86c14.53 17.4 11.52 17.45 9.15 54.03l257.82 14.26-2.26 65.82-249.59-14.66-11.21 25.35c-2.13 6.7-.22 9.22-3.95 20.6l-45.91-1.13-1.09-47.32zm116.22-404.59c222.36-71.29 316.09 209.9 142.52 274.21-89.27 33.07-192.21-10.86-223.4-71.36-46.04-89.32 6.67-179.05 80.88-202.84zm6594.79 291.14c-185.95-17-172.32-297.17 66.46-278.72 199.35 15.4 165.74 283.9-27.29 275.36L7225.51 3465c-43.24 9.4-76.66 27.07-79.17 72.51-2.92 52.9 31.41 60.03 62.46 82.82l7.33 54.65zm120.61-492.43c15.07 15.28 10.56 26.24 22.8 43.37l87.01-17.29 11.74 62.83-87.37 18.14 10.57 57.78-51.33 10.01-16.11-52.14c-37.08 4.08-155.35 29.82-189.35 46.47l3.77 53.07-49.79 10.19c-43.31-125.75-8.59-133.91 222.33-174.08l-4.66-49.92 40.39-8.44zm-6705.25 55.8c-33.14-18.85-40.9-65.09-30.71-111.76l65.71 10.91c-8.72 72.06-9.77 95.62 58.8 120.58 38.12 13.88 121.55 31.48 163.32 37.29l-11.6 65.79-303.9-68.03 11.06-58.67 47.31 3.89zm6486.38-80.57c33.02-48.92-1.47-102.85 15.71-163.42 12.02-42.42 68.21-75.37 120.57-47.82 52.96 27.87 116.12 181.01-.25 226.54l-17.37-59.45c1.07-1.63 2.83-3.62 3.62-4.64 42.7-55.78 14.11-113.54-42.28-103.47-17.95 58.92 9.32 135.85-15.93 179.94-22.72 39.67-84.32 55.75-129.85 23.85-36.56-25.61-128.83-171.29 11.91-236.42l8.73 65.07c-21.21 18.49-14.89 7.7-21.25 25.55-12.2 34.33 11.3 79.19 21.24 87.64 14.37 12.22 24.17 10.66 45.15 6.62zM730.5 2864.02c-14.81-40.18-30.7-65.46-7.7-116.79 17.46-38.95 48.35-57.7 100.23-48.46 47.29 8.42 178.52 56.13 227.21 75.58l-18.63 59.84c-71.61-14.04-187.31-78.62-255.76-62.63-31.22 74.85-10.98 92.89 61.49 117.29 49.84 16.77 106.72 39.24 156.97 50.43l-18.2 62.55c-60.27-9.47-195.51-75.68-243.56-65.35-12.45 5.88-78.22 75.77 44.25 118.85 52.34 18.4 106.75 37.81 161.02 53.01l-22.63 58.74c-44.25-5.2-105.51-31.08-150.78-46.13-27.3-9.07-45.59-15.6-72.79-25.49-28.88-10.53-42.48-11.27-67.59-27.47l26.49-48.32c62.41-10.75-19.32 14.44 23.66-4.37-37.17-57.45-22.28-119.88 56.31-151.27zm6084.34-79.54c19.67 28.99 25.89 78.4 93.46 44.7 26-12.96 55.32-48.12 80.66-70.71 27.37-24.43 143.95-130.24 166.09-139.56l22.24 66.38-166.45 141.47 225.7-5.7 19.58 60.98-365.64 19.8c-83.32 2.25-108.15-22.09-126.47-97.18l50.83-20.19zM892.51 2614.55c-106.16-42.71-36.77-219.78 47.35-232.69 42.75-6.56 104.04 34.13 140.16 52.22 101.04 50.65 62.27 15.24 98.03 16.69 1.42.06 26.19 9.7 32.13 11.57-7.48 50.14-14.1 69.34-62.73 72.33 9.61 95.16-46.11 201.66-143.39 150.01-129.33-68.68 45.93-205.37-40.9-239-27.17-10.53-100.7 42.05-41.52 116.48l-29.13 52.39zm5974.03-189.21c-29.84 30.77-63.54 47.26-38.77 115.63 13.21 36.46 44.48 81.68 96.7 63.09 88.02-31.32-24.12-192.51 23.06-265.28 120.11-185.22 375.06 128.4 174.71 228.32l-30.51-58.57c9.59-13.66-.72.23 11.42-13.74 78.66-90.36-47.41-184.29-88.61-119.14-36.6 57.87 67.76 188.15-13.83 265.83-58.78 55.97-161.71 52.06-220.04-53.64-52.51-95.18-22.97-193.77 57.27-222.09l28.59 59.57zm-5936.21-263.9c28.22 12.24 48.93 29.82 77.89 42.48l25.54-46.76 48.9 26.03-28.35 50.09c23.17 18.04 141.96 91.15 171.01 96.9 23.62-16.15 18.33-17.16 32.89-38.23l41.25 27.5c-43.59 152.1-147.39 49.72-278.37-26.62-10.09 8.7-8.01 8.45-15.87 17.92-.93 1.12-2.5 3.19-3.35 4.21l-7.25 8.36c-.54-1.23-2.48 2.79-4.11 4.7l-40.03-20.3c9.34-27.09 13-23.2 20.85-51-22.82-7.14-54.4-25.88-75.37-44.45l34.35-50.83zm132.96-38.65c10.39-23.29 14.98-31.41 33.45-49.52l227.54 147.09c15.15 10.6 18.29 12.64 28.33 23.46-9.11 17.26-17.94 32.91-32.33 51.19l-256.99-172.22zm-64.44-115.03 54.72 31.58-31.25 54.86c-26.29-9.07-42.6-22.93-58.11-37.64l34.63-48.79zm5899.2-20.98c14.33 16.5 25.44 32.62 34.16 48.09-21.97 21.94-46.62 36.24-72.17 49.91 10.4 26.66 18.72 28.32 28.23 52.15-14.56 11.22-27.81 18.88-39.91 27.58-11.5-13.16-19.38-25.82-33.51-41.39-32.12 14.14-139.22 88.39-160.89 114.5l21.25 48.16-43.81 26.31c-85.91-105.44-33.78-120.8 49.3-179.82 34.07-24.2 59.62-41.58 93.76-64.94l-21.39-44.31 39.09-23.69c9.27 9.4 21.39 23.57 30.25 32.06 28.67-13.87 45.05-35.25 75.64-44.61zM1282.41 1850.1c84.32-32.16 176.99 44.85 203.4 95.34 46.46 88.79-12.63 177.31-77.18 201.8-168.17 63.81-347.27-212.81-126.22-297.14zm5328.37-80.57c21.18 18 22.59 20.15 38.06 43.15-.83 1.64-2.28 3.73-2.95 4.66l-6.42 8.98c-.94 1.17-2.72 3.1-3.63 4.17-7.89 9.29-1.19-.32-11.89 12.03 100.94 3.89 158.06 96.79 84.52 173.77-43.61 45.64-148.51 114.29-171.56 143.72l-44.57-46.27c43.75-50.5 170.19-126.83 180.26-164.9 5.68-85.84-74.54-85.15-130.95-38.78l-127.68 100.64-38.95-46.73 235.75-194.43zm-200.95 91.95c-38.47 12.68-73.86 27.07-120.22 7.92-113.82-47.02-119.37-191.76-4.4-268.92 166.63-111.83 317.91 87.26 159.03 227.3-28.89-11-57.67-48.82-80.05-71.2-25.34-25.34-46-46.71-71.22-70.91-26.29 20-47.91 60.54-20.64 102.26 22.36 34.2 49.47 35.42 96.58 26.65l40.92 46.89zm-4984.15-143.42c2.65-64.59 10.8-89.37 49.27-117.17 68.38-49.45 144.69 28.24 200.88 86.59l78.28 81.69-44.71 39.15c-27.21-16.2-32.11-31.21-56.41-52.52-20.04-17.58-32.69-28.33-52.85-45.73-24.88-21.47-83.24-95.55-125.17-33.33-37.62 55.84 18.9 105.41 45.38 128.23l102.7 98.54-42.24 43.09-223.62-210.13 40.16-41.47 28.33 23.08zm4362.23-281.85c13.67-31.18 155.72-197.13 184.83-246.77l51.35 30.32c-7.87 26.94-5.58 17.83-18.16 38.7 83.6-17.22 130.21 22.25 131.61 104.56 129.76-17.71 164.57 83.91 119.4 148.9-16.41 23.61-122.54 164.8-147.42 179.14-16.24-20.65-25.35-22.04-43.67-34.41 10.32-26.43 25.54-37.77 45.3-63.35 50.27-65.04 130.89-143.26 75.92-181.53-62.44-43.45-116.93 50.35-165.69 114.18l-46.09 54.26-46.98-39.82 79.71-103.35c25.47-33.51 63.8-62.34 58.22-118.3-55.83-51.76-92.1-17.74-131.2 30.14-19.54 23.93-29.48 37.53-49.74 63.67-15.16 19.56-33.13 40.07-43.64 60.59l-53.76-36.93zm-3942.37 60.61c31.93 21.77 63.46 49.82 118.25 18.34 29.18-16.75 71.51-55.72 50.78-105.67-35.99-86.75-164.68 40.38-252.22 27.3-97.26-14.52-115.13-142.21-49.62-210.69 60.26-62.99 170.42-95.01 224.81-2.16-26.07 12.38-26.8 15.61-46 36.39-32.16-10.04-60.52-39.4-105.74-14.09-33.31 18.64-52.83 43.56-45.33 91.84 35.23 62.32 138-8.46 187.42-25.82 76.47-26.86 147.47 29.33 158.18 93.65 14.65 87.92-51.74 141.64-99.71 169.51-87.51 50.84-141 13.38-192.07-33.77 20.23-28.21 25.16-26.81 51.24-44.84zm3938.96-176.25c-135.89 117.74-324.04-40.31-183.52-222.55 38.7-50.19 140.44-81.34 203.98-22.74 54.17 49.96 59.52 151.56 2.34 209.59l-179.94-102.31c-25.68 40.56-21.38 78.07 10.61 105.18 63.96 54.21 91.47-38.67 146.53 32.84zm-3442.48-117.82c68.78 164.64-196.17 280.44-278.64 58.96-78.65-211.25 215.3-257.76 260.76-90.29-23.33 10.12-161.15 95.75-173.07 111.81 75.88 84.51 144.43 39.75 141.92-52.18 19.43-8.74 30.73-19.59 49.03-28.3zm3080.72-29.12c-66.15 22.25-117.48 5.55-148.97-43.62-29.89-46.69-13.66-114.86 9.34-160.84 60.36-120.71 200.95-126.69 241.77-6.41 2.34-4.48 5.22-10.68 8.54-15.47 6.9-9.95 5.38-7.2 11.22-13.49l52.88 23.39c-19.31 56.12-117.21 267.88-146.92 307.86-69.25 93.17-267.55 31.71-243.61-108.84 76.49-6.25 43.59 59.92 102.46 89.59 68.01 34.29 98.26-20.67 113.28-72.16zm-2806.31-127.68c34.57 222.4-191.66 239.28-264.86 86.9-97.48-202.93 156.72-300.75 219.89-167.1l-54.76 26.4c-67.49-80.55-159.76 11.05-103.37 116.4 48.54 90.67 166.69 91.78 142.51-39.34l60.6-23.25zm2395.76-222.88c27.22-103.3 169.17-77.2 221.9-16.43 44.57 51.36-17.7 182.45-42 243.82 9.32 13.71 14.29 16.31 22.45 27.03l-11.91 38.16c-54.84-3.95-60.41-8.11-82.02-51.76-109.61 12.8-196.17-30.19-163.31-125.12 35.86-103.61 146.35-27.45 225.53-47.15 12.98-39.81 8.79-59.32-28.83-73.1-51.66-18.94-60.12 1.35-86.36 21.08l-55.44-16.53zm-2333.7 239.77c-19.7-33.9-77.45-178.91-87.12-220.08l55.92-18.73c41.33 50.13 52.15 168.88 105.83 223.08 172.95 25.49 28.05-198.79 15.53-272.88l58.46-20.84 112.55 286.81-48.56 22.52-21.08-18.79c-.64-2.68-2.16-3.37-3.39-4.94-22.74 34.57-34.08 62.71-83.35 71.39-54.27 9.58-84.43-12.48-104.81-47.53zm286.48-313.55c22.07-39.48 30.08-65.77 85.92-71.69l18.79 62.4c-123.19 28.3-70.37 133.5-24.3 270.51l-63.2 17.02-90.32-294.36 50.43-16.1c1.31 1.14 2.81 3.05 3.47 3.86l19.22 28.36zm183.05-87.25L3222 963.53l-59.96 13.5-76.45-301.34 62.43-13.64zm1572.25-17.71 52.41 12.07c7.26 18.3.23 7.47 1.92 16.5 3.54 18.98-1.61 8.51 6.53 20.15 40.57-47.37 168.86-30.46 165.28 75.48-1.98 58.27-42.24 168.64-54.36 236.83l-60.01-17.12c1.45-68.97 60.32-181.62 40.7-242.03-41.37-56.5-103.61-23.63-122.4 38.26-13.05 42.98-28.47 140.68-46.13 174.33l-60.37-13.81 76.45-300.67zm-346.56 38.65c-1.07-107.62 172.39-108.64 226.36-44.18 32.6 38.94 10.58 111.15 3.63 156.05-23.51 151.97 20.69 36.2 11.38 140.86-22.94 1.26-43.58 4.93-63.97-5.78l-24.99-27.05c-.44-2.38-1.9-2.97-3.05-4.31-50.94 27.82-133.92 21.64-165.73-16.94-39.14-47.47-12.78-126.33 36.68-143.54 53.99-18.79 172.85 20.02 160.12-51.41-4.56-25.55-35.38-37.23-68.19-35.7-43.28 2.01-33.73 18.1-61.21 38.84l-51.04-6.84zm-840.06 133.68c7.91-51.14 16.34-99.7 24.46-150.95 13.63-85.95-1-86.33 78.84-88.13-9.33 83.44-34.34 183.99-50.09 268.56-7.33 39.43-15.34 94.3-28.57 130.2-18.21 49.38-38.23 58.89-101.69 60.7-17.71-9.17-11.12-2.12-18.04-24.2-.64-2.02-3.12-29.31-3.46-32.63 192.68-8.03-84.26-287.49-72.67-365.32l66.45-8.23 87.61 185.47c6.67 12.07.85 2.36 9.36 14.97.77 1.15 3.24 6.02 3.82 4.79.59-1.25 2.58 3.23 3.98 4.77zm-248.41 93.08c-1.55-2.6-8.65-23.34-9.93-27.92l-40.5-185.39-47.37 2.87-7.22-45.26 43.18-14-14.27-88.88 60.45-9.02L3290.4 627l56.43-4.29 7.74 46.98-52.29 16c5.66 45.18 24.52 152.33 42.54 187.44 51.12 9.81 56.5-22.88 60.02 47.04-33.33 19.42-94.28 32.19-119.59-10.44zm-167.11-360.06 15.12 61.64-62.48 14.82-15.02-64.41 62.38-12.05zm809.11 146.79-4.02 175.99c-28.64 8.72-42.3 8.72-70.95 0-2.31-23.98-1.86-177.8 7.18-182.6l2.18-245.47 98.56 2.48c40.46 104.61 63.58 227.26 106.26 328.42l108.32-326.02 100.89 1.97-10.74 429.42-64.72-3.35 1.6-315.91-109.42 314.82-61.19-.35-104.15-318.96.2 139.56zM96.13 3960.77c0 800.44 244.75 1597.02 683.34 2215.7 67.04 94.55 132.95 188.85 204.6 272.21 75.29 87.58 258.19 292.99 343.55 367.09l395.74 323.01c558.93 422.45 1442.11 721.39 2149.26 721.39h189.09c649.35 0 1475.81-257.53 1990.06-608.41 123.92-84.54 230.32-153.31 346.64-250.8l127.48-107.08c105.25-81.04 237.63-233.85 327.27-323.04l56.6-64.33c143.38-163.86 306.28-397.74 418.82-594.92 55.35-96.97 115.72-205.69 162.66-313.63 198.58-456.53 352.28-981.52 352.28-1546.42v-143.71c0-693.65-213.93-1321.52-523-1874.8-69.38-124.19-204.92-323.73-292.56-433.45-61.7-77.23-124.41-158.06-194.43-228.97l-145.94-156.73c-87.23-87.35-221.15-200.03-318.87-278.77-153.49-123.64-329.02-239.71-500.81-338.54-101.8-58.57-209.87-110.9-322.28-162.09C4524.25-30.58 3382.78-1.19 2369.08 445.56c-284.24 125.26-584.07 317.09-818.23 505.32-26.01 20.9-41.88 36.99-65.68 55.03l-129.01 113.18c-137.17 114.45-340.13 347.58-459.08 501.55-33.91 43.88-69.23 92.64-102.09 140.1C361.17 2387.18 96.11 3145.96 96.11 3960.78z" style="fill:#fff"/>
            <path class="fil1" d="M5003.24 5227.56c123.45-11.94 204.73-37.86 223.24-155.24l126.33 2.54.01 770.25-158.25.65v-500.32l-192.94-2.78 1.6-115.11zm-2121.8-171.81c8.35 5.8-2.01 1.22 16.39 8.23 8.21 3.13 10.07 3.04 17.74 5.09 14.43 3.88 26.66 6.93 39.25 10.4 16.06-33.37 110.11-65.56 144.05-97.62-17.72-31.54-179.1-225.53-184.97-283.83h63.07c17.8 18.34 90.23 140.56 136.22 196.15 20.73 25.06 22.71 35.44 48.42 56.35 38.11-6.4 178.73-76.86 289.65-98.5l-55.49-154c118.59-.61 44.78 16.46 121.34 133.92 165.7-15.39 198.03-47.05 432.73-47.05l-.04-85.71 63.2-1.43v83.19c51.29 12.19 166.08 12.16 229.46 20.03 70.61 8.76 136.77 23.6 205.34 36.48l51.8-139.39 70.73 2.3-58.61 150.42c22.08 14.43 111.19 37.2 145.16 49.99 44.21 16.65 100.64 45.44 138.47 55.56 55.14-37.47 160.89-225.97 191.45-258.32h63.12c-13.07 70.25-161.58 241.37-192.61 291.55 39.26 21.54 127.69 69.18 154.26 97.71 22.5-8.46 96.89-69.58 109.43-82.51 37.37-38.59 62.23-58.76 94.13-94.96 52.76-59.86 138.4-137.99 167.84-211.55l76.84.93c-13.41 33.47-92.42 137.79-119.79 169.36-77.34 89.2-76.94 77.84-136.9 142.93-68.17 74.01-243.95 215.15-320.57 245.23 52.42 162.11 54.37 533.02-179.58 593.77-127.72 33.17-242.64-16.85-294.3-96.1-60.31-92.54-67.79-202.11-66.69-330.14-17.95 29.76 11.99 31.84-24.69 49.06l-8.08-69.65 32.29-5.59 9.32-85.83-57.87-13.87c32.6 223.66 13.71 496.22-188.71 550.86-121.48 32.81-227.64-8.25-282.45-75.43-56.56-69.33-79.9-176.28-83.14-285.47l-214.64-41.85c-47.02 57.32-90.34 301.98-92.35 398.68l-168.48.62c13.63-227.88 74-288.95 131.22-447.87-30.59 4.61-121.13-40.56-154.64-55.44-42.62-18.9-114.58-48.92-143.64-80.71 4.61 152.11-51.56 208.76-133.42 269.88-76.85 57.39-179.01 101.58-222.78 178.58l362.09-.01.97 135.57h-569.16c.48-80.32 22.4-150.97 72.25-209.37 76.46-89.55 180.53-134.68 257.27-196.37 230.03-184.93-131.51-419.8-161.46-69.02h-150.65c.11-178.98 81.68-296.26 251.56-313.01-64.45-75.12-263.3-257.61-299.53-360 88.61-.37 58.03-15.89 142.73 95.99l162.97 177.42c30.08 26.3 55.94 59.15 91.7 75.71-11.83 9.18 15.75 9.32-19.22 8.62zm1605.53-1374.84c0-230.65 135.53-479.67 311.59-609.52 314.3-231.81 794.17-231.11 1101.49 3.86 25.59 19.56 28.01 22.19 51.57 46.8 52.08 54.4 43.08 31.9 98.08 114.07 198.17 296.07 198.7 712.71-1.31 1009.42-148.07 219.64-424.42 328.02-731.15 328.02-466.58 0-830.27-345.9-830.27-809.46v-83.2zM1900.2 2941.37l949.39 1.46.19 314.28-291.12 2.38v952.27l292.76.34.09 316.1H1896.2l2.29-316.1h294.82l.15-954.59H1898.2l1.99-316.13zm1419.48 1026.3c154.94 396.74 693.81 337.45 752.88 155.42 31.37-96.7-26.89-166-90.96-195.63-182.51-84.41-452.94-27.71-716.93-167.72-277.26-147.04-392.58-495.1-63.37-727.53 120.16-84.83 293.12-131.19 474.7-114.27 192.58 17.94 274.48 79.37 400.12 187.03l2.42-163.73 327.37 3.02-.87 515.22-320.37.36c-47.1-65.72-71.68-123.19-127.33-173.86-214.21-195.09-642.45-137.21-549.93 96.04 82.79 208.7 556.71 63.97 869.81 317.73 272.21 220.63 209.7 596.49-68.84 763.36-261.54 156.68-645.11 122.15-850.29-78.65-15.96-15.61-18.51-19.38-37.4-30.23l-1.2 173.96h-341.55V3966.1l341.74 1.56zM2502.9 2774.91c33.34-87.9 252.36-320.98 335.62-385.26 28.44-21.96 48.79-42.21 78.46-65.17 566.88-438.51 1345.71-472.14 1964.35-113.85 157.44 91.17 201.45 142.92 323.16 251.7 57.97 51.79 221.26 234.81 256.16 312.31l-60.21.72c-26.94-4.63-113.01-136.78-136.21-161.02-20.24-21.15-27.43-26.76-44.35-46.21-33.32-38.29-156.05-158.1-205.18-180.17l-155.97 97.9c28.71 44.91 68.07 83.4 102.55 136.59 25.04 38.64 72.78 106.36 89.53 151.47-78.76 3.99-62.85 9.37-108.68-64.29-43.43-69.8-90.86-135.23-146.78-192.91-45.08 11.09-161.28 68.21-284.84 100.74l57.18 157.19-65.69-1.09-52.84-138.76c-69.82 8.91-137.61 26.58-210.53 35.45-51.65 6.3-187.52 9.23-225.13 19.8l-.65 81.81-62.15 1.11-5.52-86.43c-162.39-2.36-280.13-26.92-430.77-50.51-55.42 169.47-51.86 139.61-121.66 138.3l58.97-156.88c-94.88-20.45-199.82-62.37-282.55-99.06-27.09 18.82-33.2 32.92-52.94 58.39-163.83 211.41-94.98 200.12-204.37 198.14 12.96-38.1 68.45-121.22 90.93-152.87 17.62-24.8 32.74-44.95 51.02-70.02 18.88-25.91 34.1-39.7 50.71-69.82-56-17.31-114.4-68.18-162.25-92.07-66.79 36.46-195.51 173.6-249.75 231.51-135.98 145.18-64.7 155.24-189.61 153.28zm1536.09 3801.23c336.56 0 764.45-110.76 1027.41-241.57 152.64-75.94 274.41-143.42 402.06-233.39 64.73-45.62 119.73-89.4 178.57-139 162.65-137.13 332.76-316.34 451.67-493.8 82.28-122.8 164.59-252.05 231.71-403.8 170.81-386.18 237.08-687.13 237.08-1141.63 0-591.99-246.61-1180.56-610.83-1614.91-155.05-184.92-145.24-153.74-272.13-280.24-15.14-15.1-25.06-19.67-41.55-34.18-406.49-357.65-1045.02-610.41-1604.23-610.41h-135.91c-354.91 0-750.1 110.17-1032.48 243.88-305.55 144.68-363.53 206.08-585 375.94-18.84 14.45-25.55 24.73-43.2 39.75-16.12 13.75-26.46 21.12-41.76 34.21-28.97 24.79-51.02 54.27-78.13 80.57l-156.08 169.04c-132.35 156.01-286.02 406.12-364.84 588.42-382.61 884.91-284.57 1861.74 298.52 2632.87 71.42 94.45 225.77 270.81 304.77 337.81 16.86 14.3 30.55 23.93 45.64 37.97l127.4 106.94c426.25 319.64 958.39 545.54 1525.16 545.54h136.15z"/>
            <path class="fil2" d="M96.1 3960.76c0-814.82 265.05-1573.6 698.88-2200.04 32.87-47.46 68.18-96.23 102.09-140.1 118.95-153.97 321.91-387.1 459.08-501.55l129.01-113.18c23.8-18.04 39.67-34.14 65.68-55.03C1785 762.63 2084.83 570.8 2369.07 445.54 3382.78-1.21 4524.24-30.6 5545.62 434.46c112.41 51.19 220.47 103.53 322.28 162.09 171.78 98.83 347.32 214.9 500.81 338.54 97.72 78.74 231.64 191.42 318.87 278.77l145.94 156.73c70.02 70.92 132.74 151.74 194.43 228.97 87.64 109.72 223.18 309.26 292.56 433.45 309.08 553.28 523 1181.15 523 1874.8v143.71c0 564.9-153.71 1089.88-352.28 1546.42-46.95 107.94-107.31 216.66-162.66 313.63-112.55 197.18-275.45 431.06-418.82 594.92l-56.6 64.33c-89.64 89.19-222.01 242-327.27 323.04l-127.48 107.08c-116.33 97.49-222.73 166.26-346.64 250.8-514.25 350.88-1340.71 608.41-1990.06 608.41h-189.09c-707.15 0-1590.34-298.94-2149.26-721.39l-395.74-323.01c-85.36-74.09-268.26-279.5-343.55-367.09-71.65-83.37-137.56-177.66-204.6-272.21-438.59-618.68-683.34-1415.26-683.34-2215.7zM0 3938.07c0 369.55 49.13 822.51 154.1 1139.29 117.04 353.22 150.27 445.41 317.47 779.27 66.27 132.34 147.46 253.6 228.81 376.27 109.28 164.76 238.77 328.83 379.37 467.76 25.5 25.2 35.41 43.42 60.39 68.19l93.95 87.58c33.22 26.3 58.61 62.89 92.68 88.84 28.07 21.37 39.59 37.03 64.93 56.09l65.79 55.23c24.63 20.03 41.64 34.04 67.17 53.86l208.93 154.13c26.04 17.31 46.59 31.05 72.61 48.4 49.74 33.18 95.65 62.39 148.36 93.67 105.11 62.39 212.95 114.46 322.11 169.53 193.28 97.5 404.99 170.47 615.32 231.81 34.17 9.97 62.55 17.09 95.65 25.37 518.48 129.61 1026.48 152.76 1557.76 82.85 593.91-78.16 1255.79-342.66 1737.91-705.15 47.94-36.04 92.19-68.76 138.32-103.72 67.49-51.16 129.12-115.86 196.56-166.48 70.1-52.63 304.87-300.34 361.85-371.84l214.19-269.87c9.91-13.39 14.03-21.26 24.63-35.88l256.55-416.6c68.02-137.24 136.03-277.15 193.03-419.63 139.18-347.91 216.98-707.46 257.32-1081.45 2.12-19.74-.28-38.92 1.88-58.63 42.52-388.35-9.74-859.97-88.66-1206.61-59.59-261.71-147.01-497.96-250.38-740.45-111.08-260.58-331.35-619.01-514.82-839.08l-143.35-166.75c-34.41-41.01-146.89-167.6-182.44-195.74l-226.27-204.87c-65.15-58.46-137.97-109.53-208.21-162.4-26.72-20.11-48.62-34.46-74.7-53.89-94.91-70.7-196.69-128.84-299.84-191.79-244.52-149.23-596.81-294.24-871.31-369.13-64.27-17.53-134.12-35.46-198.12-51.47-129.37-32.37-279.75-57.3-416.53-75.11-41.99-5.46-69.28-6.68-111.04-9.99l-119.53-9.05C4153.38.73 4059.95 9.15 3982.75.42c-14.53-1.64-197.77 2.12-230.96 4.8-217.55 17.59-444.31 40.25-655.27 93.52-67.62 17.07-131.65 30.73-193.02 49.03-66.26 19.76-125.31 36.68-191.03 58.58-122.67 40.87-240.98 92.53-359.15 140.04l-326.27 165.36c-106.65 56.8-206.39 125.34-307.11 192.09-108.89 72.15-213.96 153.63-311.25 240.91l-230.66 208.03c-20.94 20.96-41.3 38.81-60.53 60.5L943.61 1410c-81.42 86.36-148.01 185.85-218.71 280.5-71.07 95.16-131.27 197.15-192.34 299.31-9.8 16.41-11.79 22.94-20.72 39.79l-42.79 78.21c-64.39 125.2-127.24 249.04-179.46 380.26l-128 371.2c-10.44 35.2-17.67 56.65-26.98 94.05C58.39 3259.64-.02 3576.39-.02 3938.1z"/>
            <path class="fil2" d="M4038.99 6576.13h-136.15c-566.77 0-1098.91-225.9-1525.16-545.54l-127.4-106.94c-15.09-14.04-28.79-23.67-45.64-37.97-79-67-233.35-243.36-304.77-337.81-583.09-771.13-681.13-1747.96-298.52-2632.87 78.82-182.3 232.5-432.41 364.84-588.42l156.08-169.04c27.11-26.3 49.16-55.78 78.13-80.57 15.3-13.09 25.64-20.46 41.76-34.21 17.64-15.02 24.36-25.3 43.2-39.75 221.47-169.86 279.44-231.26 585-375.94 282.39-133.71 677.58-243.88 1032.48-243.88h135.91c559.21 0 1197.74 252.75 1604.23 610.41 16.5 14.51 26.41 19.08 41.55 34.18 126.89 126.5 117.08 95.32 272.13 280.24 364.22 434.35 610.83 1022.92 610.83 1614.91 0 454.5-66.27 755.45-237.08 1141.63-67.12 151.75-149.43 281-231.71 403.8-118.91 177.46-289.02 356.67-451.67 493.8-58.83 49.6-113.84 93.37-178.57 139-127.65 89.97-249.42 157.45-402.06 233.39-262.96 130.81-690.85 241.57-1027.41 241.57zm-240-5287.41c-424.51 28.27-725.14 128.97-1059.54 290.66-568.39 274.84-1051.39 826.56-1279.91 1413.03-137.22 352.14-206.82 743.5-180.99 1157.68 89.42 1433.32 1316.72 2613.74 2862.36 2521.21 539.2-32.28 1071.42-236.93 1468.82-549.81 228.25-179.71 265.88-230.53 429.01-410.43 24.14-26.62 50.45-60.8 74.42-92.08 626.52-817.76 735.51-1941.73 257.66-2870.55-102.44-199.13-228.39-382.89-373-550.03-118.34-136.77-250.28-252.37-392.16-363.98-179.74-141.41-427.6-280.88-647.84-365.75-354.3-136.54-740.59-207.82-1158.83-179.95z"/>
            <path class="fil3" d="M5303.79 3240.02c550.72-52.86 430.52 722.47 357.94 838.25-46.12 73.56-152.23 146.95-277.27 158.62-134.4 12.54-238.16-28.44-327.37-114.27-88.5-85.15-90.54-224.18-94.56-343.39-9.74-289.23 63.85-512.57 341.26-539.21zm-816.82 440.88v83.2c0 463.56 363.69 809.46 830.27 809.46 306.73 0 583.09-108.38 731.15-328.02 200.01-296.71 199.49-713.35 1.31-1009.42-55-82.18-46.01-59.67-98.08-114.07-23.56-24.61-25.99-27.24-51.57-46.8-307.32-234.98-787.19-235.67-1101.49-3.86-176.06 129.85-311.59 378.87-311.59 609.52z"/>
            <path class="fil3" d="m3319.68 3967.66-341.74-1.56v562.09h341.55l1.2-173.96c18.89 10.86 21.44 14.63 37.4 30.23 205.18 200.8 588.75 235.33 850.29 78.65 278.54-166.87 341.06-542.73 68.84-763.36-313.11-253.76-787.02-109.03-869.81-317.73-92.52-233.25 335.72-291.12 549.93-96.04 55.64 50.66 80.23 108.14 127.33 173.86l320.37-.36.87-515.22-327.37-3.02-2.42 163.73c-125.63-107.66-207.54-169.09-400.12-187.03-181.59-16.92-354.55 29.44-474.7 114.27-329.21 232.42-213.89 580.48 63.37 727.53 263.99 140.01 534.42 83.31 716.93 167.72 64.07 29.63 122.33 98.93 90.96 195.63-59.06 182.03-597.94 241.32-752.88-155.42zM1898.21 3257.49h295.25l-.15 954.59h-294.83l-2.29 316.1h955.31l-.1-316.1-292.75-.34v-952.27l291.12-2.37-.18-314.28-949.39-1.46z"/>
            <path class="fil1" d="M5303.79 3240.02c-277.41 26.64-351 249.97-341.26 539.21 4.02 119.21 6.06 258.24 94.56 343.39 89.21 85.83 192.97 126.81 327.37 114.27 125.04-11.67 231.15-85.06 277.27-158.62 72.57-115.78 192.77-891.11-357.94-838.25z"/>
            <path class="fil3" d="M4012.64 2274.21c37.75-.08 149.42-12.31 171.76-1.83 56.51 26.53 201.33 219.08 232.47 303.61-145.41 23.36-250.16 41.39-404.23 47.72v-349.5zm-466.05 304.13c29.28-85.8 181.36-288.69 238.4-308.76 14.77-5.2 133.4 4.56 164.97 4.63v349.5c-151.19-2.4-262.74-24.26-403.36-45.38zm716.87-326.97c121.74-63.09 169.04-35.59 269.73 35.24 39.33 27.67 188.15 130.93 211.43 176.53-48.56 37.08-188.93 77.81-259.37 94.54-14.71-12.93-39.57-65.2-49.61-82.62-85.04-147.56-155.86-192.02-172.18-223.7zm-946.3 117.93c27.19-23.81 73.44-57.77 108.78-80.34 176.85-112.97 124.49-71.21 275.38-42.52l-33.97 41.94c-118.22 122.12-119.56 170.64-185.83 271.53-47.37-7.3-156.66-45.88-207.21-65.92-24.37-9.66-44.53-14.18-60.57-33.07l103.43-91.61zm1145.69-195.14c20.28-20.99 30.86-26.95 52.65-53.1 187.37 37.54 352.67 174.32 446.1 220.46-28.45 29.59-105.95 75.52-151.12 91.04-135.63-110.91-140.08-153.18-347.63-258.4zm-1460.41 175.53c40.08-55.34 369.98-218.73 447.26-227.86l50.94 51.91c-115.8 57.69-264.53 167.58-349.4 263.45-51.17-27.67-104.56-48.93-148.8-87.51zm516.33-250.25c83.66-39.68 353.05-67.82 467.27-66.89 95.38.79 394.07 28.16 458.05 67.55-84.42 124.4-774.4 163.57-925.32-.66zM2502.9 2774.89c124.91 1.95 53.63-8.11 189.61-153.28 54.24-57.9 182.96-195.04 249.75-231.51 47.84 23.89 106.24 74.76 162.25 92.07-16.61 30.12-31.82 43.92-50.71 69.82-18.27 25.07-33.39 45.22-51.02 70.02-22.48 31.65-77.96 114.77-90.93 152.87 109.4 1.97 40.54 13.26 204.37-198.14 19.74-25.47 25.84-39.57 52.94-58.39 82.74 36.69 187.67 78.6 282.55 99.06l-58.97 156.88c69.79 1.31 66.24 31.17 121.66-138.3 150.64 23.59 268.38 48.15 430.77 50.51l5.52 86.43 62.15-1.11.65-81.81c37.61-10.57 173.49-13.5 225.13-19.8 72.91-8.87 140.7-26.54 210.53-35.45l52.84 138.76 65.69 1.09-57.18-157.19c123.57-32.53 239.77-89.65 284.84-100.74 55.91 57.68 103.34 123.1 146.78 192.91 45.83 73.66 29.92 68.28 108.68 64.29-16.75-45.11-64.49-112.82-89.53-151.47-34.48-53.19-73.83-91.68-102.55-136.59l155.97-97.9c49.13 22.07 171.86 141.88 205.18 180.17 16.92 19.45 24.11 25.06 44.35 46.21 23.2 24.24 109.27 156.39 136.21 161.02l60.21-.72c-34.9-77.5-198.19-260.52-256.16-312.31-121.71-108.78-165.72-160.52-323.16-251.7-618.64-358.29-1397.47-324.66-1964.35 113.85-29.67 22.95-50.02 43.21-78.46 65.17-83.26 64.29-302.28 297.36-335.62 385.26zM2954.82 5079.47c8.46 5.04 17.05 9.86 26 15.08 19.1 11.12 10.66 8.75 29.38 13.85 47.31-19.84 85.71-58.09 136.29-73.14l36.51 37.56h93.36l-47.48-44.77c-14.52-15.3-7.82-6.54-15.92-23.51 38.88-26.3 214.32-89.47 266.31-91.52l92.37 159.39 77.82.79c-27.7-51.62-88.57-121.73-104.25-181.34 139.39-22.02 254.22-43.83 402.12-43.83l2.72 211 21.77-2.47 37.33.86 3.97-209.66c77.78.09 345.52 22.03 401.6 50.88-18.83 73.25-137.48 222.9-179.13 256.77l27.77 54.36c48-24.35 92.36-91 124.63-136.34 19.42-27.28 32.56-48.31 50.32-77.94 15.99-26.67 26.09-57.02 46.91-80.62 62.18 12.53 226.67 64.14 263.48 96.92-15.45 13.69-41.14 33.67-49.54 53.11l65.51 23.88 44.11-49.96c45.34 13.47 116.41 64.87 151.86 86.53-22.64 22.33-79.58 45.46-94.77 74.28l16.66 57.09c76.62-30.08 252.4-171.23 320.57-245.23 59.96-65.09 59.56-53.73 136.9-142.93 27.36-31.57 106.38-135.89 119.79-169.36l-76.84-.93c-29.44 73.56-115.08 151.69-167.84 211.55-31.9 36.19-56.76 56.37-94.13 94.96-12.54 12.93-86.93 74.05-109.43 82.51-26.58-28.53-115-76.18-154.26-97.71 31.03-50.18 179.54-221.3 192.61-291.55h-63.12c-30.56 32.35-136.31 220.85-191.45 258.32-37.84-10.12-94.26-38.91-138.47-55.56-33.97-12.8-123.08-35.56-145.16-49.99l58.61-150.42-70.73-2.3-51.8 139.39c-68.57-12.88-134.73-27.72-205.34-36.48-63.38-7.87-178.17-7.84-229.46-20.03v-83.19l-63.2 1.43.04 85.71c-234.7 0-267.03 31.66-432.73 47.05-76.56-117.45-2.75-134.53-121.34-133.92l55.49 154c-110.91 21.64-251.53 92.09-289.65 98.5-25.71-20.91-27.69-31.29-48.42-56.35-45.99-55.59-118.42-177.8-136.22-196.15h-63.07c5.88 58.31 167.25 252.29 184.97 283.83-33.94 32.06-127.99 64.25-144.05 97.62z"/>
            <path class="fil2" d="m4498.25 5427.2 1.97-61.56c1.74-22.48 5.59-41.45 10.6-62.88 1.86-7.97 5.37-21.96 8.39-29.24 8.89-21.45 4.63-10.73 11.75-20.05 7.44-23.35 4.98-18.74 22.6-36.92 15.68-16.17 17.52-21.26 40.03-19.51 10.21-10.24-15.72-5.11 20.23-11.23 67.02 2.78 95.55 32.32 113.87 85.87l15.86 63.95c16.87 120.8 22.04 348.42-77.3 386.98-77.81 30.21-125.03-21.59-146.36-79.51-22.73-61.73-22.05-146.06-21.63-215.89zm-137.15-174.81-10.28 59.85-9.32 85.83.48 26.17c-1.09 128.03 6.38 237.6 66.69 330.14 51.66 79.25 166.58 129.27 294.3 96.1 233.95-60.75 232-431.65 179.58-593.77l-16.66-57.09c-1.32-1.32-2.94-3.32-3.69-4.23-.73-.9-2.72-3.11-3.6-4.25-1.2-1.54-5.3-7.07-6.6-8.87-3.13-4.32-6.25-9.32-9.12-13.48-52.25-75.89-37.95-39.45-78.18-80.01l-65.51-23.88c-84.22-13.78-162.29-11.03-226.66 32.86-65.94 44.97-72.69 83.58-98.99 135.63-10.27 20.32-.74 6.44-12.44 19zM3924.17 5259.91c33.03-94.04 152.57-96.96 192.7-9 16.91 28.67 24.67 76.38 28.33 116.67 1.94 21.3 3.07 41.94 4.4 61.97l-6.52 59.37 4.06 7.41c-.22 96.81-17.83 244.3-137.69 233.51-154.89-13.94-121.58-401.92-85.29-469.93zm-141.25-59.36-25.59 68.76-18.64 151.08-.04 67.92c3.24 109.2 26.58 216.15 83.14 285.47 54.81 67.18 160.97 108.24 282.45 75.43 202.42-54.64 221.31-327.2 188.71-550.86l-22.24-73.59-7.33-14.99-27.77-54.36c-58.4-58.35-106.54-103.71-226.44-97.99l-37.33-.86c-75.6 45.52-68-24.92-188.91 143.98zM3096.13 5261.74l-27.52-81.83c-1.07-1.4-2.54-3.38-3.16-4.23-.62-.85-2.39-3.17-3.15-4.22l-40.63-49.99c-1.02-1.07-3.04-3.29-3.87-4.18l-7.6-8.88c-18.72-5.1-10.28-2.73-29.38-13.85-8.94-5.22-17.54-10.04-26-15.08-12.59-3.47-24.82-6.52-39.25-10.4-7.66-2.06-9.52-1.96-17.74-5.09-18.41-7.01-8.05-2.43-16.39-8.23l-78.65 2.25c-169.88 16.75-251.45 134.03-251.56 313.01h150.65c29.95-350.79 391.49-115.91 161.46 69.02-76.73 61.69-180.81 106.81-257.27 196.37-49.85 58.4-71.78 129.05-72.25 209.37h569.16l-.97-135.57-362.09.01c43.76-77 145.93-121.19 222.78-178.58 81.86-61.12 138.03-117.77 133.42-269.88zM3159.36 5221.92l-.55-1.6 217.17-.86 134.76 3.22-33.53 52.22c-11.22 12.61-3.46 4.32-12.17 12.09l-37.8 58.11-32.85 52.79c-57.22 158.92-117.59 219.99-131.22 447.87l168.48-.62c2.01-96.7 45.33-341.37 92.35-398.68l29.7-62.13 45.27-79.09c19.68-30.4 43.87-63.28 71.89-76.24 13.73-24.17 12.56-34.18 12.47-73.05-.06-28.15 1.79-55.15 1.81-83.49l-35.68.73-77.82-.79-295.29.4h-93.36l-27.05 2.05 3.42 147.06zM5003.24 5227.56l-1.6 115.11 192.94 2.78v500.32l158.25-.65-.01-770.25-126.33-2.54c-18.51 117.38-99.79 143.3-223.24 155.24z"/>
            <path class="fil1" d="M3518.78 2099.45c150.92 164.23 840.9 125.06 925.32.66-63.98-39.4-362.67-66.77-458.05-67.55-114.22-.93-383.61 27.21-467.27 66.89zM3546.59 2578.34c140.62 21.11 252.17 42.98 403.36 45.38v-349.5c-31.57-.07-150.2-9.82-164.97-4.63-57.04 20.07-209.11 222.95-238.4 308.76z"/>
            <path class="fil2" d="m3859.42 689.85-1.46 180.57h59.52c0-25.78-.13-168.01 9.73-173.96l-.2-139.56 104.15 318.96 61.19.35 109.42-314.82-1.6 315.91 64.72 3.35 10.74-429.42-100.89-1.97-108.32 326.02c-42.68-101.16-65.8-223.81-106.26-328.42l-98.56-2.48-2.18 245.47z"/>
            <path class="fil1" d="M4012.64 2274.21v349.5c154.07-6.33 258.82-24.36 404.23-47.72-31.13-84.53-175.96-277.09-232.47-303.61-22.34-10.48-134.01 1.75-171.76 1.83z"/>
            <path class="fil2" d="m3098.88 7151.87-88.7-36.34c-33.3 42.55-72.08 92.7-148.55 49.8-156.79-87.94 27.54-390.86 164.68-255.55 21.55 21.26 26.38 52.13 28.51 90.38l89.19 32.6c43.65-262.14-325.32-346.09-422.85-78.54-104.96 287.98 277.49 429.15 377.72 197.66z"/>
            <path class="fil1" d="m3649.47 5073.2 35.68-.73c-.02 28.34-1.87 55.34-1.81 83.49.09 38.87 1.26 48.88-12.47 73.05l23.91-10.21-6.45-94.31c35.52 19.92 55.3 60.99 94.58 76.06 120.91-168.9 113.31-98.46 188.91-143.98l-21.77 2.47-2.72-211c-147.9 0-262.73 21.8-402.12 43.83 15.68 59.61 76.55 129.71 104.25 181.34zM3924.17 5259.91c-36.3 68.01-69.61 455.99 85.29 469.93 119.86 10.79 137.47-136.69 137.69-233.51-79.99 10.39-162.93 7.89-246.02 7.26l-.03-65.62 238.57-8.97 3.42 59.92 6.52-59.37c-1.33-20.04-2.46-40.68-4.4-61.97-3.67-40.28-11.42-87.99-28.33-116.67-22.48 21-122.42 5.26-192.7 9z"/>
            <path class="fil2" d="M5119 6982.96c105.56-34.89 166.91 171.36 66.51 196.87-102.21 25.97-165.81-164.04-66.51-196.87zm-3.57-200.21 57.95 148.29c-145.58-50.57-232.92 79.79-177.05 217.43 48.96 120.62 201.81 168.54 275.55 29.33l22.69 25.62 73.51-29.69-165.85-422.86-86.8 31.88z"/>
            <path class="fil1" d="M4009.16 5057.43c119.9-5.72 168.04 39.64 226.44 97.99 41.65-33.87 160.3-183.52 179.13-256.77-56.09-28.85-323.83-50.79-401.6-50.88l-3.97 209.66zM3213.74 2460.91c16.04 18.89 36.2 23.42 60.57 33.07 50.55 20.04 159.84 58.62 207.21 65.92 66.27-100.89 67.61-149.41 185.83-271.53l33.97-41.94c-150.9-28.68-98.53-70.44-275.38 42.52-35.34 22.57-81.59 56.53-108.78 80.34l-103.43 91.61zM4263.46 2251.38c16.32 31.68 87.14 76.14 172.18 223.7 10.04 17.43 34.9 69.69 49.61 82.62 70.44-16.73 210.82-57.46 259.37-94.54-23.27-45.6-172.09-148.86-211.43-176.53-100.7-70.84-147.99-98.33-269.73-35.24zM4498.25 5427.2c-.42 69.82-1.11 154.16 21.63 215.89 21.33 57.93 68.55 109.73 146.36 79.51 99.35-38.56 94.17-266.18 77.3-386.98-38.35 11.15-78.84 33.68-119.94 49.29-42.77 16.25-81.79 29.91-125.35 42.29z"/>
            <path class="fil2" d="m6866.54 2425.34-28.59-59.57c-80.25 28.31-109.79 126.9-57.27 222.09 58.33 105.7 161.26 109.61 220.04 53.64 81.59-77.67-22.77-207.96 13.83-265.83 41.2-65.16 167.27 28.78 88.61 119.14-12.15 13.96-1.84.08-11.42 13.74l30.51 58.57c200.35-99.92-54.6-413.55-174.71-228.32-47.18 72.77 64.96 233.96-23.06 265.28-52.22 18.59-83.49-26.63-96.7-63.09-24.78-68.38 8.92-84.86 38.77-115.63zM730.5 2864.03c-78.59 31.39-93.49 93.82-56.31 151.27-42.98 18.81 38.74-6.38-23.66 4.37l-26.49 48.32c25.11 16.2 38.71 16.94 67.59 27.47 27.2 9.9 45.49 16.42 72.79 25.49 45.27 15.05 106.53 40.93 150.78 46.13l22.63-58.74c-54.27-15.19-108.68-34.61-161.02-53.01-122.47-43.07-56.7-112.97-44.25-118.85 48.05-10.33 183.29 55.88 243.56 65.35l18.2-62.55c-50.25-11.19-107.13-33.65-156.97-50.43-72.47-24.4-92.71-42.43-61.49-117.29 68.45-16 184.15 48.59 255.76 62.63l18.63-59.84c-48.69-19.45-179.92-67.16-227.21-75.58-51.88-9.23-82.78 9.51-100.23 48.46-23 51.34-7.12 76.61 7.7 116.79zM1845.53 1496.82c-26.08 18.02-31.01 16.63-51.24 44.84 51.07 47.14 104.56 84.61 192.07 33.77 47.97-27.87 114.35-81.59 99.71-169.51-10.71-64.32-81.71-120.51-158.18-93.65-49.42 17.36-152.19 88.14-187.42 25.82-7.5-48.28 12.02-73.19 45.33-91.84 45.22-25.31 73.57 4.05 105.74 14.09 19.19-20.78 19.92-24 46-36.39-54.39-92.85-164.55-60.83-224.81 2.16-65.51 68.48-47.64 196.17 49.62 210.69 87.54 13.08 216.23-114.05 252.22-27.3 20.73 49.95-21.6 88.91-50.78 105.67-54.79 31.47-86.32 3.43-118.25-18.34zM5787.9 1436.21l53.76 36.93c10.51-20.52 28.48-41.03 43.64-60.59 20.27-26.14 30.2-39.74 49.74-63.67 39.1-47.88 75.37-81.9 131.2-30.14 5.58 55.96-32.75 84.79-58.22 118.3l-79.71 103.35 46.98 39.82 46.09-54.26c48.76-63.82 103.25-157.63 165.69-114.18 54.97 38.27-25.65 116.49-75.92 181.53-19.76 25.57-34.98 36.92-45.3 63.35 18.32 12.36 27.43 13.76 43.67 34.41 24.87-14.34 131-155.52 147.42-179.14 45.17-64.99 10.36-166.62-119.4-148.9-1.4-82.31-48.01-121.78-131.61-104.56 12.58-20.88 10.29-11.76 18.16-38.7l-51.35-30.32c-29.11 49.64-171.16 215.59-184.83 246.77zM4717.44 7176.53c3.74-98.61 99.8-116.18 138.96-39.04-21.72 16.96-111.64 34.15-138.96 39.04zm249.65 44.74c-105.48 3.09-65.83 39.56-113.4 65.23-45.93 24.78-99.78 21.16-119.46-52.9l227.83-54.68c-16.62-218.98-340.16-205.55-329.02 19.31 11.3 228.16 320.35 221.98 334.05 23.04zM3246.34 7152.62c32.43-71.22 131.6-68.48 138.39 37.44-41.72-6.35-109.27-14.96-138.39-37.44zm194.71 158.83c-71.99-48.37-88.98 5.26-134.93 4.13-61.54-1.51-83.61-42.33-78.67-99.45l234.16 54.31c45.27-281.93-231.27-289.57-304.09-136.78-108.03 226.65 212.75 335.88 283.52 177.78zM5402.2 941.64c108.99-44.3 112.43 154.75 14.79 191.74-110.39 41.82-130.86-144.58-14.79-191.74zm20.52 231.99c-15.02 51.49-45.27 106.45-113.28 72.16-58.88-29.68-25.98-95.84-102.46-89.59-23.94 140.55 174.37 202.01 243.61 108.84 29.71-39.97 127.62-251.74 146.92-307.86l-52.88-23.39c-5.84 6.29-4.32 3.54-11.22 13.49-3.33 4.79-6.2 10.99-8.54 15.47-40.82-120.27-181.41-114.29-241.77 6.41-22.99 45.99-39.23 114.16-9.34 160.84 31.48 49.17 82.82 65.87 148.97 43.62zM7132.02 3753.78l-3.39 64.91c101.72.01 285.64-40.46 260.23 91.03-41.23 33.17-189.44 20.78-257.99 20.78v63.92c61.54 0 129.09-2.68 189.86-.06 68.59 2.94 87.83 40.18 64.59 98.18-57.45 26.24-176.42 14.15-251.81 14.15l-1.22 65.86c50.59 0 228.58 3.41 263.43-8.87 65.45-23.06 77.53-103.65 10.72-180.22 25.04-21.9 41.86-32.23 43.46-76.03.59-16.15-2.34-36.07-9.55-50.09-9.54-18.56-19.36-23.18-31.64-31.02l30.31-16.83.88-56.85-307.88 1.15z"/>
            <path class="fil1" d="M4462.85 2174.17c207.54 105.22 211.99 147.49 347.63 258.4 45.18-15.52 122.68-61.45 151.12-91.04-93.44-46.14-258.73-182.93-446.1-220.46-21.78 26.15-32.37 32.11-52.65 53.1zM3002.45 2349.7c44.24 38.58 97.63 59.84 148.8 87.51 84.87-95.87 233.6-205.77 349.4-263.45l-50.94-51.91c-77.28 9.13-407.18 172.52-447.26 227.86z"/>
            <path class="fil2" d="M1036.22 2485.93c26.51 12.34 58.02 19.2 65.33 55.37 6.98 34.54-14.79 71.27-34.64 81.82-33.38 17.77-60.77-10.45-59.11-45.13l21.7-76.13c.54-1.53 1.64-4.26 2.09-5.47l4.64-10.46zm-143.71 128.62 29.13-52.39c-59.18-74.43 14.36-127.01 41.52-116.48 86.84 33.63-88.43 170.33 40.9 239 97.28 51.66 152.99-54.85 143.39-150.01 48.63-3 55.25-22.2 62.73-72.33-5.94-1.87-30.72-11.51-32.13-11.57-35.76-1.46 3.01 33.96-98.03-16.69-36.11-18.1-97.4-58.78-140.16-52.22-84.12 12.91-153.51 189.98-47.35 232.69zM5159.63 939.14c-39.59 187.93-220.38 4.53-98.88-10.5 28.38-3.52 64.16 10.71 98.88 10.5zm-147.46-116.07 55.44 16.53c26.25-19.73 34.71-40.03 86.36-21.08 37.62 13.78 41.81 33.29 28.83 73.1-79.17 19.7-189.66-56.46-225.53 47.15-32.86 94.92 53.7 137.91 163.31 125.12 21.61 43.65 27.19 47.81 82.02 51.76l11.91-38.16c-8.16-10.72-13.13-13.32-22.45-27.03 24.29-61.37 86.57-192.46 42-243.82-52.73-60.77-194.68-86.87-221.9 16.43zM4538.87 770.95c-3.84 191.81-213.11 43.82-103.81 8.42 26.06-8.44 75-4.51 103.81-8.42zm-165.18-87.97 51.04 6.84c27.48-20.74 17.93-36.82 61.21-38.84 32.82-1.53 63.64 10.14 68.19 35.7 12.73 71.43-106.13 32.62-160.12 51.41-49.46 17.21-75.82 96.07-36.68 143.54 31.81 38.58 114.79 44.76 165.73 16.94 1.15 1.33 2.6 1.93 3.05 4.31l24.99 27.05c20.39 10.71 41.03 7.04 63.97 5.78 9.31-104.65-34.89 11.11-11.38-140.86 6.95-44.9 28.97-117.11-3.63-156.05-53.97-64.46-227.44-63.44-226.36 44.18zM4244.32 7116.34l-47.63 13.58 3.54 53.25 54.69.46 24.16 265.18 91.06-8.6-23.01-264.68 61.82-8.81-5.69-61.09-62.91 5.25 1.25-48.06c15.6-7.04 41.01-9.79 59.21-16.09l-3.06-63.91c-166.01.14-133.54 61.3-153.43 133.52zM7337.44 3476.35c12.45 11.37 23.82 30.16 23.59 53.16-.45 46.51-30.48 59.44-68.39 72.69l-20.6-144.82c30.03 1.33 47.45 2.57 65.39 18.97zm-121.31 198.63-7.33-54.65c-31.05-22.79-65.38-29.92-62.46-82.82 2.51-45.44 35.93-63.11 79.17-72.51l29.79 206.62c193.03 8.54 226.64-259.96 27.29-275.36-238.78-18.45-252.41 261.72-66.46 278.72zM2118.61 1238.25c-13.44-43.74-11.08-87.19 22.51-105.7 40.95-22.56 78.69 4.67 100.98 18.84-14.92 31.04-89.82 77.16-123.48 86.86zm223.4-35.5c-18.3 8.71-29.6 19.56-49.03 28.3 2.51 91.93-66.04 136.69-141.92 52.18 11.92-16.06 149.74-101.69 173.07-111.81-45.46-167.48-339.4-120.96-260.76 90.29 82.47 221.49 347.42 105.68 278.64-58.96zM6326.6 1649.06c72.63-65.87 173.16 10.34 101.38 100.95l-101.38-100.95zm83.22 212.42-40.92-46.89c-47.11 8.77-74.21 7.55-96.58-26.65-27.27-41.72-5.65-82.26 20.64-102.26 25.22 24.2 45.88 45.57 71.22 70.91 22.38 22.38 51.16 60.2 80.05 71.2 158.88-140.04 7.6-339.13-159.03-227.3-114.97 77.16-109.42 221.9 4.4 268.92 46.36 19.15 81.75 4.76 120.22-7.92zM5652.99 1134.29c22.04-21.85 50.73-52.71 98.79-28.98 42.74 21.1 38.93 54.19 28.6 105.07-29.4-10.02-109.04-58.7-127.39-76.08zm131.5 186.28c-55.05-71.51-82.57 21.37-146.53-32.84-31.99-27.11-36.29-64.62-10.61-105.18l179.94 102.31c57.17-58.03 51.82-159.63-2.34-209.59-63.53-58.6-165.28-27.44-203.98 22.74-140.53 182.24 47.63 340.29 183.52 222.55zM3836.17 7121.15l-55.17-1.95-1.5 56.1 52.34 10.26c9.04 171.35-81.65 284.04 144.42 274.95l4.5-71.12c-81.18-.34-64.68 2.31-55.61-201.2l66.2 2.52 3.04-60.77-65.4-3.51 2.72-98.21-91-5.29-4.53 98.22z"/>
            <path class="fil1" d="m4263.38 5209.78 7.33 14.99c32.41 3.73 65.11 10.94 90.39 27.62 11.69-12.56 2.17 1.32 12.44-19 26.31-52.05 33.05-90.66 98.99-135.63 64.37-43.89 142.44-46.64 226.66-32.86 8.4-19.44 34.09-39.43 49.54-53.11-36.81-32.77-201.3-84.39-263.48-96.92-20.82 23.6-30.93 53.95-46.91 80.62-17.77 29.63-30.9 50.66-50.32 77.94-32.27 45.34-76.63 112-124.63 136.34z"/>
            <path class="fil2" d="m6814.85 2784.48-50.83 20.19c18.32 75.08 43.14 99.43 126.47 97.18l365.64-19.8-19.58-60.98-225.7 5.7 166.45-141.47-22.24-66.38c-22.15 9.32-138.72 115.13-166.09 139.56-25.34 22.59-54.66 57.75-80.66 70.71-67.56 33.69-73.79-15.71-93.46-44.7zM3533.63 816.66c-1.39-1.54-3.39-6.02-3.98-4.77-.58 1.23-3.05-3.65-3.82-4.79-8.51-12.61-2.69-2.89-9.36-14.97l-87.61-185.47-66.45 8.23c-11.6 77.83 265.34 357.29 72.67 365.32.34 3.32 2.82 30.61 3.46 32.63 6.92 22.08.33 15.03 18.04 24.2 63.46-1.82 83.48-11.32 101.69-60.7 13.23-35.89 21.24-90.77 28.57-130.2 15.74-84.56 40.76-185.12 50.09-268.56-79.84 1.8-65.21 2.18-78.84 88.13-8.12 51.25-16.55 99.81-24.46 150.95zM644.59 3444.67c138.16-40.37 214.41 122.85 90.6 154.16-55.28 13.99-113.36-7.07-138.27-38.53-24.41-30.83-33.34-91.96 47.67-115.63zm-23.25-60.83c-74.2 23.79-126.91 113.53-80.88 202.84 31.18 60.51 134.12 104.44 223.4 71.36 173.57-64.31 79.84-345.5-142.52-274.21zM1293.58 1908.22c52.14-15.06 109.98 29.41 127.87 56.13 72.48 108.33-66.74 189.08-159.37 68.5-35.83-46.65-23.82-108.64 31.49-124.63zm-11.18-58.13c-221.05 84.33-41.95 360.95 126.22 297.14 64.55-24.49 123.64-113.01 77.18-201.8-26.41-50.49-119.08-127.5-203.4-95.34zM7117.87 3157.78c-20.98 4.04-30.78 5.6-45.15-6.62-9.94-8.45-33.44-53.31-21.24-87.64 6.35-17.86.04-7.07 21.25-25.55l-8.73-65.07c-140.74 65.14-48.47 210.82-11.91 236.42 45.53 31.9 107.12 15.82 129.85-23.85 25.24-44.09-2.02-121.03 15.93-179.94 56.39-10.07 84.98 47.69 42.28 103.47-.79 1.02-2.54 3.01-3.62 4.64l17.37 59.45c116.37-45.53 53.21-198.67.25-226.54-52.36-27.55-108.55 5.4-120.57 47.82-17.18 60.57 17.31 114.5-15.71 163.42zM2768.65 774.23c12.52 74.09 157.42 298.38-15.53 272.88-53.68-54.2-64.51-172.95-105.83-223.08l-55.92 18.73c9.67 41.17 67.42 186.18 87.12 220.08 20.38 35.06 50.54 57.11 104.81 47.53 49.27-8.69 60.6-36.82 83.35-71.39 1.23 1.57 2.75 2.26 3.39 4.94l21.08 18.79 48.56-22.52-112.55-286.81-58.46 20.84zM538.1 4057.44h-38.66l-.24 62.16 309.11-2.91 3.14-65.15c-83.79-.02-256.65 30.89-265.13-61.77-7.92-86.55 134.08-61.49 260.77-61.49l2.63-65.85c-178.14-.03-315.48-27.86-319.3 98.47-1.76 57.76 28.18 68.16 47.68 96.54zM4643.81 945l60.37 13.81c17.66-33.65 33.08-131.35 46.13-174.33 18.79-61.89 81.03-94.76 122.4-38.26 19.63 60.41-39.25 173.06-40.7 242.03l60.01 17.12c12.13-68.18 52.38-178.56 54.36-236.83 3.58-105.95-124.7-122.85-165.28-75.48-8.14-11.64-2.99-1.17-6.53-20.15-1.69-9.03 5.34 1.81-1.92-16.5l-52.41-12.07-76.45 300.67zM6375.02 1963.96l38.95 46.73 127.68-100.64c56.41-46.38 136.63-47.07 130.95 38.78-10.07 38.07-136.51 114.4-180.26 164.9l44.57 46.27c23.04-29.43 127.95-98.07 171.56-143.72 73.53-76.97 16.41-169.87-84.52-173.77 10.7-12.35 4-2.75 11.89-12.03.91-1.07 2.69-3.01 3.63-4.17l6.42-8.98c.67-.93 2.13-3.02 2.95-4.66-15.47-23-16.88-25.15-38.06-43.15l-235.75 194.43zM1425.67 1718.06l-28.33-23.08-40.16 41.47 223.62 210.13 42.24-43.09-102.7-98.54c-26.47-22.82-82.99-72.39-45.38-128.23 41.93-62.22 100.28 11.86 125.17 33.33 20.16 17.39 32.82 28.15 52.85 45.73 24.29 21.31 29.2 36.33 56.41 52.52l44.71-39.15-78.28-81.69c-56.19-58.35-132.5-136.03-200.88-86.59-38.47 27.81-46.62 52.59-49.27 117.17zM2616.42 1045.95l-60.6 23.25c24.18 131.13-93.97 130.01-142.51 39.34-56.39-105.35 35.88-196.94 103.37-116.4l54.76-26.4c-63.16-133.65-317.36-35.82-219.89 167.1 73.2 152.38 299.43 135.5 264.86-86.9zM3507.42 7419.46c149.26 22.63 65.58-1.33 111.41-165.18 21.13-75.57 55.46-59.46 127.74-61.27l9.16-83.78c-69.49-9.47-96.97 9.12-125.13 43.97-.59-1.65-1.15-6.1-1.24-5.11-.08.99-.92-4.12-1-5.21l.49-41.5-84.65-9.06c-8.18 58.9-43.02 289.67-36.78 327.14z"/>
            <path class="fil1" d="m3276.36 5072.82 295.29-.4-92.37-159.39c-52 2.05-227.44 65.22-266.31 91.52 8.1 16.97 1.39 8.21 15.92 23.51l47.48 44.77z"/>
            <path class="fil2" d="m505.11 3788.44 1.09 47.32 45.91 1.13c3.73-11.37 1.82-13.89 3.95-20.6l11.21-25.35 249.59 14.66 2.26-65.82-257.82-14.26c2.37-36.59 5.38-36.63-9.15-54.03l-30.24-1.86c-14.25 20.14-9.91 13.99-12.92 53.22-62.58-4.31-65.64-3.85-55.78-64.02l-56.27-.5c-17.14 109.25 12.21 121.02 108.18 130.12zM895.97 2212.27c20.97 18.56 52.55 37.31 75.37 44.45-7.85 27.81-11.52 23.91-20.85 51l40.03 20.3c1.63-1.91 3.57-5.93 4.11-4.7l7.25-8.36c.85-1.02 2.42-3.1 3.35-4.21 7.86-9.47 5.77-9.22 15.87-17.92 130.98 76.34 234.78 178.71 278.37 26.62l-41.25-27.5c-14.55 21.07-9.27 22.07-32.89 38.23-29.05-5.74-147.84-78.85-171.01-96.9l28.35-50.09-48.9-26.03-25.54 46.76c-28.96-12.66-49.67-30.24-77.89-42.48l-34.35 50.83zM7296.36 3190.99l4.66 49.92c-230.93 40.17-265.64 48.33-222.33 174.08l49.79-10.19-3.77-53.07c34-16.65 152.27-42.39 189.35-46.47l16.11 52.14 51.33-10.01-10.57-57.78 87.37-18.14-11.74-62.83-87.01 17.29c-12.24-17.14-7.73-28.1-22.8-43.37l-40.39 8.44zM6822.41 2031.39c-8.86-8.49-20.99-22.66-30.25-32.06l-39.09 23.69 21.39 44.31c-34.14 23.35-59.69 40.74-93.76 64.94-83.08 59.02-135.21 74.38-49.3 179.82l43.81-26.31-21.25-48.16c21.67-26.11 128.76-100.36 160.89-114.5 14.13 15.57 22.01 28.23 33.51 41.39 12.11-8.7 25.35-16.36 39.91-27.58-9.51-23.83-17.83-25.49-28.23-52.15 25.55-13.67 50.2-27.97 72.17-49.91-8.72-15.47-19.83-31.6-34.16-48.09-30.59 9.36-46.97 30.74-75.64 44.61zM3209.1 551.16l14.27 88.88-43.18 14 7.22 45.26 47.37-2.87 40.5 185.39c1.28 4.58 8.38 25.32 9.93 27.92 25.31 42.63 86.26 29.86 119.59 10.44-3.52-69.92-8.9-37.23-60.02-47.04-18.01-35.11-36.87-142.26-42.54-187.44l52.29-16-7.74-46.98-56.43 4.29-20.82-84.86-60.45 9.02z"/>
            <path class="fil3" d="m2802.79 5057.99 78.65-2.25c34.97.69 7.4.56 19.22-8.62-35.76-16.56-61.62-49.41-91.7-75.71l-162.97-177.42c-84.7-111.87-54.11-96.36-142.73-95.99 36.23 102.39 235.08 284.88 299.53 360z"/>
            <path class="fil2" d="M4466.85 7099.67c4.72 54.05 38.8 285.04 56.21 319.09 28.3-1.55 63.16-5.43 84.17-16.54l-51.42-318.79c-29.43-.61-63.34 2.57-88.96 16.24zM4062.75 7457.08l59.44-.09 31.91-.18-.01-39.47-8.2-292.71-91.79 3.2zM385.77 4195.6l6.06 67.22 426.7-26.34-3.87-69.29z"/>
            <path class="fil3" d="M644.59 3444.67c-81.01 23.67-72.08 84.8-47.67 115.63 24.9 31.46 82.98 52.51 138.27 38.53 123.81-31.31 47.57-194.53-90.6-154.16zM1293.58 1908.22c-55.31 15.99-67.32 77.98-31.49 124.63 92.63 120.58 231.85 39.83 159.37-68.5-17.89-26.72-75.73-71.19-127.87-56.13z"/>
            <path class="fil2" d="m631.49 3238.35-47.31-3.89-11.06 58.67 303.9 68.03 11.6-65.79c-41.77-5.8-125.2-23.41-163.32-37.29-68.57-24.97-67.52-48.53-58.8-120.58l-65.71-10.91c-10.19 46.67-2.43 92.91 30.71 111.76zM2964.95 749.29l-19.22-28.36c-.66-.82-2.16-2.73-3.47-3.86l-50.43 16.1 90.32 294.36 63.2-17.02c-46.07-137-98.89-242.21 24.3-270.51l-18.79-62.4c-55.84 5.93-63.84 32.22-85.92 71.69z"/>
            <path class="fil3" d="M5119 6982.96c-99.3 32.84-35.7 222.84 66.51 196.87 100.4-25.51 39.05-231.76-66.51-196.87zM5402.2 941.64c-116.07 47.16-95.6 233.56 14.79 191.74 97.64-36.99 94.2-236.04-14.79-191.74zM3096.13 5261.74c29.06 31.79 101.02 61.81 143.64 80.71 33.51 14.87 124.04 60.04 154.64 55.44l32.85-52.79c-56.96-12.39-154.97-58.74-209.59-86.41-10.81-5.48-18.82-9.4-29.2-15.49l-29.64-22.88.55 1.6c-23.91-5.99-27.05-9.11-48.94-22.41-24.79-15.08-16.9-14.14-41.81-19.58l27.52 81.83z"/>
            <path class="fil1" d="M4530.96 5253.46c-7.13 9.32-2.86-1.4-11.75 20.05-3.02 7.28-6.53 21.27-8.39 29.24-5.01 21.43-8.86 40.41-10.6 62.88 14.41-16.21 22.39-14.52 50.11-23.68l177.36-70.28c-18.31-53.55-46.85-83.09-113.87-85.87-35.96 6.11-10.03.99-20.23 11.23l36.2-4.63-79.13 60.05c-23.55 11.61-10.88 10-19.7 1zM3427.25 5345.1l37.8-58.11c-28.32-27.48-70.2-35.3-89.07-67.53l-217.17.86 29.64 22.88c10.38 6.09 18.39 10.01 29.2 15.49 54.62 27.67 152.62 74.02 209.59 86.41z"/>
            <path class="fil2" d="m3085.57 675.69 76.45 301.34 59.96-13.5L3148 662.04zM1063.29 2122.79l256.99 172.22c14.39-18.28 23.22-33.93 32.33-51.19-10.04-10.81-13.18-12.86-28.33-23.46l-227.54-147.09c-18.47 18.11-23.05 26.23-33.45 49.52z"/>
            <path class="fil1" d="m3598.98 5305.24-45.27 79.09 184.98 36.06 18.64-151.08-128.35 37.47c-1.16.29-16.23 2.87-16.28 2.87-17.52.21-3.09 2.43-13.73-4.41z"/>
            <path class="fil3" d="m4147.14 5496.33-4.06-7.41-3.42-59.92-238.57 8.97.03 65.62c83.09.63 166.03 3.13 246.02-7.26z"/>
            <path class="fil1" d="m3010.19 5108.4 7.6 8.88c.84.89 2.85 3.11 3.87 4.18l40.63 49.99c.76 1.05 2.53 3.38 3.15 4.22.62.86 2.09 2.83 3.16 4.23 24.91 5.44 17.02 4.5 41.81 19.58 21.89 13.3 25.03 16.42 48.94 22.41l-3.42-147.06 27.05-2.05-36.51-37.56c-50.58 15.05-88.98 53.3-136.29 73.14z"/>
            <path class="fil3" d="m4500.22 5365.63-1.97 61.56c43.57-12.37 82.58-26.04 125.35-42.29 41.1-15.61 81.59-38.15 119.94-49.29l-15.86-63.95-177.36 70.28c-27.71 9.16-35.7 7.48-50.11 23.68z"/>
            <path class="fil1" d="M4764.7 5088.78c40.23 40.56 25.93 4.12 78.18 80.01 2.87 4.16 5.99 9.16 9.12 13.48 1.3 1.81 5.4 7.33 6.6 8.87.89 1.14 2.87 3.35 3.6 4.25.74.92 2.37 2.91 3.69 4.23 15.19-28.82 72.13-51.94 94.77-74.28-35.45-21.66-106.51-73.06-151.86-86.53l-44.11 49.96z"/>
            <path class="fil3" d="M3670.87 5229c-28.02 12.96-52.21 45.84-71.89 76.24 10.64 6.84-3.79 4.62 13.73 4.41.05 0 15.12-2.58 16.28-2.87l128.35-37.47 25.59-68.76c-39.28-15.07-59.06-56.14-94.58-76.06l6.45 94.31-23.91 10.21zM3524.01 5446.46l214.64 41.85.04-67.92-184.98-36.06z"/>
            <path class="fil4" d="M3924.17 5259.91c70.28-3.74 170.22 12 192.7-9-40.13-87.96-159.67-85.04-192.7 9z"/>
            <path class="fil3" d="M4538.87 770.95c-28.81 3.9-77.75-.02-103.81 8.42-109.3 35.4 99.96 183.39 103.81-8.42zM5159.63 939.14c-34.72.21-70.5-14.03-98.88-10.5-121.5 15.04 59.29 198.43 98.88 10.5zM1036.22 2485.93l-4.64 10.46c-.44 1.22-1.55 3.95-2.09 5.47l-21.7 76.13c-1.65 34.67 25.73 62.89 59.11 45.13 19.85-10.55 41.63-47.28 34.64-81.82-7.31-36.17-38.82-43.03-65.33-55.37zM2118.61 1238.25c33.66-9.7 108.57-55.82 123.48-86.86-22.29-14.17-60.02-41.4-100.98-18.84-33.59 18.51-35.95 61.95-22.51 105.7zM5652.99 1134.29c18.34 17.38 97.99 66.06 127.39 76.08 10.33-50.88 14.14-83.97-28.6-105.07-48.06-23.73-76.75 7.14-98.79 28.98zM7292.65 3602.2c37.91-13.24 67.93-26.17 68.39-72.69.23-23-11.15-41.79-23.59-53.16-17.94-16.4-35.37-17.64-65.39-18.97l20.6 144.82zM6326.6 1649.06l101.38 100.95c71.78-90.61-28.75-166.81-101.38-100.95zM3246.34 7152.62c29.12 22.49 96.67 31.09 138.39 37.44-6.79-105.92-105.96-108.66-138.39-37.44zM4717.44 7176.53c27.32-4.9 117.24-22.08 138.96-39.04-39.16-77.14-135.22-59.57-138.96 39.04z"/>
            <path class="fil2" d="m4444.11 6970.03 12.05 75.51 90.74-14.41-11.6-72.42zM4052.93 7078.61l90.26-2.66-.57-73.61-91.91-1z"/>
            <path class="fil4" d="m4292.95 5298.36 57.87 13.87 10.28-59.85c-25.28-16.68-57.98-23.89-90.39-27.62l22.24 73.59zM3465.05 5286.99c8.71-7.77.95.53 12.17-12.09l33.53-52.22-134.76-3.22c18.87 32.23 60.75 40.06 89.07 67.53z"/>
            <path class="fil2" d="M964.21 2056.55c15.51 14.71 31.82 28.57 58.11 37.64l31.25-54.86-54.72-31.58-34.63 48.79zM3055.72 561.73l15.02 64.41 62.48-14.82-15.12-61.65z"/>
            <path d="M3927.21 696.46c-9.86 5.95-9.73 148.18-9.73 173.96h-59.52l1.46-180.57c-9.04 4.79-9.49 158.61-7.18 182.6 28.65 8.72 42.31 8.72 70.95 0l4.02-175.99z" style="fill:#8ca8c4"/>
            <path class="fil4" d="M4530.96 5253.46c8.82 9-3.85 10.61 19.7-1l79.13-60.05-36.2 4.63c-22.51-1.75-24.35 3.35-40.03 19.51-17.62 18.18-15.16 13.56-22.6 36.92zM4341.98 5424.24l-.48-26.17-32.29 5.59 8.08 69.65c36.68-17.22 6.73-19.31 24.69-49.06z"/>
        </g>
    </g>
</svg>
