<?xml version="1.0" standalone="no"?>
<!DOCTYPE svg PUBLIC "-//W3C//DTD SVG 20010904//EN"
 "http://www.w3.org/TR/2001/REC-SVG-20010904/DTD/svg10.dtd">
<svg version="1.0" xmlns="http://www.w3.org/2000/svg"
 width="600.000000pt" height="581.000000pt" viewBox="0 0 600.000000 581.000000"
 preserveAspectRatio="xMidYMid meet">

<g transform="translate(0.000000,581.000000) scale(0.100000,-0.100000)"
fill="#E53935" stroke="none">
<path d="M2705 5534 c-526 -56 -967 -229 -1380 -543 -136 -103 -372 -341 -477
-481 -296 -393 -476 -842 -527 -1312 -14 -126 -14 -451 0 -576 64 -583 319
-1124 729 -1546 707 -727 1741 -983 2711 -670 468 151 909 455 1229 848 164
202 339 513 428 761 48 131 105 360 128 505 21 143 30 496 15 646 -61 609
-327 1171 -760 1605 -403 403 -893 650 -1478 745 -95 15 -524 28 -618 18z
m325 -189 c17 -20 5 -45 -20 -45 -11 0 -23 7 -26 15 -6 15 11 45 26 45 4 0 13
-7 20 -15z m459 -14 c10 -7 12 -21 8 -54 -6 -42 -5 -45 19 -51 51 -13 37 -70
-15 -60 -27 6 -28 4 -39 -59 -17 -89 -16 -94 18 -106 50 -17 27 -70 -25 -57
-62 16 -77 68 -51 179 14 58 14 58 -10 67 -13 5 -24 16 -24 24 0 19 27 39 44
33 10 -4 16 5 21 31 10 55 26 71 54 53z m-461 -53 c13 -13 17 -213 6 -255 -8
-29 -30 -36 -50 -15 -15 14 -16 32 -11 140 4 68 9 128 12 133 8 13 29 11 43
-3z m-211 -9 c73 -27 99 -76 108 -201 l7 -96 -39 -43 c-36 -38 -46 -43 -95
-47 -37 -3 -64 1 -84 11 -40 21 -66 52 -62 74 5 28 37 27 63 -1 45 -49 155
-23 155 36 0 17 -2 17 -25 2 -13 -9 -44 -16 -68 -16 -155 -3 -204 209 -63 273
48 22 64 23 103 8z m436 -3 c42 -18 80 -59 75 -82 -5 -29 -38 -29 -65 0 -26
29 -82 36 -102 13 -8 -11 3 -18 57 -36 108 -38 131 -84 67 -140 -30 -26 -44
-31 -85 -31 -41 0 -55 5 -85 31 -38 33 -46 72 -18 83 11 4 27 -4 48 -24 33
-32 70 -38 100 -16 17 12 13 15 -46 35 -88 29 -109 45 -109 83 0 47 52 90 118
97 7 0 27 -5 45 -13z m-715 -68 c55 -33 81 -107 45 -127 -10 -5 -55 -17 -101
-27 -84 -19 -96 -31 -49 -47 21 -7 37 -4 66 10 26 13 45 17 55 11 56 -31 -54
-103 -129 -84 -37 9 -92 63 -105 102 -24 72 19 152 95 179 45 15 75 11 123
-17z m1121 -12 c6 -7 29 -14 51 -14 40 -1 96 -26 104 -48 3 -7 -1 -20 -9 -31
-13 -17 -15 -17 -43 0 -71 41 -111 15 -147 -93 -21 -64 -31 -80 -46 -80 -32 0
-33 27 -5 124 47 155 64 180 95 142z m-1406 -48 c14 -22 -7 -48 -39 -48 -34 0
-64 -34 -64 -73 0 -18 11 -62 25 -97 23 -58 24 -66 10 -79 -26 -27 -45 -2 -93
122 -37 97 -42 119 -32 132 8 9 21 13 32 9 13 -4 28 2 43 16 23 22 69 40 94
37 8 -1 19 -9 24 -19z m1755 -78 c35 -22 72 -87 72 -130 0 -37 -72 -174 -93
-178 -12 -3 -20 4 -24 17 -4 16 -13 21 -38 21 -69 0 -139 73 -137 145 1 114
124 183 220 125z m-2149 -112 c60 -95 71 -119 71 -155 0 -114 -108 -181 -208
-129 -51 26 -74 71 -69 134 3 45 9 59 39 89 23 22 50 38 72 42 l36 6 -31 47
c-33 50 -33 78 0 78 14 0 40 -32 90 -112z m2380 -11 c6 -8 8 -17 4 -20 -3 -4
1 -7 11 -7 30 0 97 -40 108 -66 9 -20 8 -28 -5 -41 -16 -16 -19 -15 -45 10
-20 19 -39 27 -63 27 -44 0 -59 -11 -103 -82 -40 -64 -48 -71 -70 -62 -28 11
-18 37 54 147 68 105 86 121 109 94z m-1019 -173 c354 -55 677 -205 946 -437
l68 -59 11 39 c31 104 118 208 212 254 71 35 189 33 258 -4 89 -48 137 -104
166 -198 18 -58 19 -105 19 -1054 0 -952 -1 -998 -20 -1097 -60 -313 -218
-601 -418 -762 -160 -130 -336 -193 -597 -215 -86 -8 -117 -16 -220 -58 -185
-76 -331 -113 -524 -132 -317 -33 -659 23 -945 153 -70 32 -80 34 -149 29
-171 -13 -324 96 -358 255 -8 38 -22 68 -42 89 l-30 32 23 63 c143 394 415
866 679 1177 l46 54 5 -694 c5 -687 5 -694 27 -734 41 -77 105 -115 192 -115
62 0 89 10 136 52 80 69 75 -3 75 1063 0 900 -1 952 -19 990 -22 49 -65 93
-108 111 -40 17 -133 18 -168 2 -14 -6 -28 -8 -32 -4 -4 4 -8 50 -10 103 -1
53 -4 98 -7 100 -12 12 -477 -688 -666 -1002 -206 -345 -390 -733 -390 -824 0
-12 -4 -21 -8 -21 -5 0 -46 63 -92 141 -242 411 -286 944 -119 1444 171 511
546 917 1047 1131 317 136 675 181 1012 128z m-1591 -52 c46 -34 39 -53 -44
-122 -41 -34 -75 -64 -75 -66 0 -2 14 -4 32 -4 23 0 40 10 68 40 33 36 38 38
56 25 19 -14 19 -15 -2 -51 -54 -96 -186 -97 -244 -2 -62 102 33 233 149 207
19 -4 46 -16 60 -27z m-386 -142 c30 -26 36 -28 47 -15 16 19 49 19 57 0 3 -9
-3 -25 -13 -36 -19 -21 -18 -22 36 -70 30 -26 59 -49 64 -49 5 0 18 8 28 17
14 13 23 15 35 7 27 -17 26 -32 -1 -59 -42 -42 -80 -34 -153 30 -56 50 -64 54
-82 43 -17 -11 -23 -10 -38 4 -16 16 -16 19 0 36 16 17 15 20 -19 51 -35 31
-36 32 -19 51 10 11 19 20 21 20 2 0 19 -13 37 -30z m-96 -136 c3 -8 -2 -23
-11 -32 -15 -15 -17 -15 -32 0 -21 21 -11 48 16 48 11 0 23 -7 27 -16z m130
-101 c51 -42 96 -80 99 -85 7 -11 -14 -38 -30 -38 -18 0 -206 159 -206 174 0
17 10 26 28 26 8 0 57 -34 109 -77z m-161 -33 c59 -38 115 -82 125 -96 48 -74
23 -166 -57 -205 -75 -36 -149 -11 -186 62 -34 66 -14 145 47 185 l25 16 -44
28 c-24 16 -47 33 -51 39 -7 12 11 41 26 41 4 0 56 -31 115 -70z m-98 -311
c17 -6 33 -17 36 -24 3 -8 -13 -53 -35 -100 -23 -48 -38 -89 -35 -93 14 -13
61 36 66 68 6 42 33 61 56 39 13 -13 14 -23 5 -56 -35 -131 -203 -151 -263
-32 -37 72 -11 149 62 187 50 25 64 26 108 11z m-194 -274 c-1 -11 -8 -35 -15
-53 -22 -53 1 -81 88 -112 82 -29 96 -39 87 -63 -9 -24 -25 -22 -146 19 -120
40 -144 57 -113 83 14 11 20 29 21 58 1 53 27 95 57 91 15 -2 22 -9 21 -23z
m1622 -175 c20 -70 79 -190 134 -269 l42 -62 -139 -142 c-295 -303 -523 -630
-719 -1031 -115 -233 -231 -542 -280 -741 -9 -39 -20 -73 -24 -78 -3 -4 -33
36 -65 88 -83 134 -171 240 -321 385 -106 103 -266 234 -391 320 -21 15 -19
18 143 240 91 124 169 225 175 225 5 0 89 -132 186 -294 98 -162 183 -294 188
-293 6 0 13 19 17 40 44 254 420 922 932 1657 l91 130 7 -60 c4 -32 15 -84 24
-115z m-1680 -84 c3 -8 -4 -27 -15 -43 -34 -48 -36 -76 -6 -111 65 -77 182 1
134 89 -12 23 3 49 28 49 17 0 43 -59 43 -97 0 -99 -131 -166 -218 -113 -43
26 -76 98 -67 143 15 67 85 125 101 83z m-48 -292 c2 -11 -4 -27 -13 -34 -23
-19 -19 -79 7 -107 28 -30 83 -31 115 -1 26 24 29 55 11 105 -10 29 -10 36 2
43 23 15 29 12 50 -22 73 -120 -62 -259 -188 -194 -73 38 -97 145 -46 206 29
34 57 36 62 4z m179 -280 c3 -9 2 -24 -4 -33 -7 -11 -6 -22 5 -39 10 -15 13
-38 10 -73 -4 -42 -12 -57 -41 -87 -30 -30 -44 -36 -91 -40 -55 -4 -57 -4
-101 40 -41 41 -45 50 -45 94 0 78 46 132 125 145 80 13 135 10 142 -7z"/>
<path d="M2744 5210 c-55 -22 -70 -95 -29 -135 40 -41 105 -33 131 17 36 69
-32 148 -102 118z"/>
<path d="M2408 5140 c-31 -24 -45 -63 -20 -56 9 3 37 10 62 16 90 22 87 20 61
41 -30 25 -72 24 -103 -1z"/>
<path d="M3875 4995 c-52 -51 -16 -145 54 -145 46 0 85 39 85 85 0 74 -88 112
-139 60z"/>
<path d="M1736 4849 c-20 -16 -26 -29 -26 -57 1 -45 18 -70 57 -81 35 -10 87
8 97 34 34 89 -54 162 -128 104z"/>
<path d="M2479 4467 c-60 -22 -96 -54 -123 -109 -97 -194 92 -397 281 -303
131 66 163 238 66 346 -20 22 -49 47 -63 54 -41 21 -120 27 -161 12z"/>
<path d="M4547 4460 c-54 -10 -116 -57 -152 -115 l-30 -48 -5 -340 -5 -339
-325 -3 c-292 -2 -334 -4 -414 -24 -335 -81 -571 -379 -666 -841 -44 -210 -34
-416 29 -662 59 -229 140 -379 276 -514 78 -78 106 -99 186 -137 156 -75 310
-99 494 -77 327 38 575 226 721 546 42 92 88 243 102 339 8 46 12 409 14 1070
3 959 2 1001 -16 1035 -28 53 -75 98 -110 105 -17 4 -38 8 -46 9 -8 2 -32 0
-53 -4z m-187 -1744 c0 -391 -1 -418 -21 -482 -72 -237 -235 -370 -478 -390
-215 -18 -392 75 -476 251 -48 99 -65 180 -71 330 -5 117 -3 140 20 229 66
257 218 436 392 466 27 4 181 8 342 9 l292 1 0 -414z"/>
<path d="M1929 1775 c-164 -51 -201 -284 -61 -392 73 -56 184 -55 258 2 42 32
84 118 84 169 0 104 -62 194 -153 221 -60 18 -68 18 -128 0z"/>
<path d="M1481 4654 c-19 -24 -30 -84 -15 -84 10 0 114 92 114 101 0 5 -18 9
-39 9 -31 0 -44 -6 -60 -26z"/>
<path d="M1083 4200 c-37 -15 -54 -69 -37 -115 8 -19 55 -45 83 -45 11 0 32
11 47 24 21 18 28 32 28 61 0 63 -59 100 -121 75z"/>
<path d="M953 3933 c-28 -5 -63 -49 -63 -77 1 -11 6 -31 13 -43 12 -22 15 -19
50 52 20 41 33 74 29 74 -4 -1 -17 -4 -29 -6z"/>
<path d="M712 2807 c-49 -52 -13 -137 57 -137 68 0 104 78 60 134 -27 35 -86
36 -117 3z"/>
</g>
</svg>
