<svg xmlns="http://www.w3.org/2000/svg" xml:space="preserve" width="673.542" height="657.279" style="shape-rendering:geometricPrecision;text-rendering:geometricPrecision;image-rendering:optimizeQuality;fill-rule:evenodd;clip-rule:evenodd" viewBox="0 0 6101.63 5954.3"><defs><style>.fil0,.fil1{fill:#47ccff}.fil0{fill-rule:nonzero}</style></defs><g id="Layer_x0020_1"><g id="_2408114654720"><path class="fil0" d="M2008.54 968.61c554.62 0 1056.75 224.82 1420.23 588.3 363.48 363.48 588.3 865.62 588.3 1420.24s-224.82 1056.76-588.3 1420.24c-363.48 363.48-865.61 588.3-1420.23 588.3S951.78 4760.87 588.3 4397.39C224.82 4033.91 0 3531.78 0 2977.15c0-554.62 224.82-1056.76 588.3-1420.24 363.48-363.48 865.61-588.3 1420.24-588.3zm1151.53 857.01c-294.69-294.69-701.81-476.96-1151.53-476.96-449.71 0-856.84 182.27-1151.53 476.96-294.69 294.69-476.96 701.82-476.96 1151.53 0 449.71 182.27 856.84 476.96 1151.53 294.69 294.69 701.82 476.96 1151.53 476.96 449.71 0 856.84-182.27 1151.53-476.96 294.69-294.69 476.96-701.82 476.96-1151.53 0-449.71-182.27-856.84-476.96-1151.53z"/><path class="fil1" d="M5083.99 0c562.03 0 1017.64 455.61 1017.64 1017.64 0 562.02-455.61 1017.64-1017.64 1017.64-562.02 0-1017.64-455.61-1017.64-1017.64C4066.35 455.62 4521.96 0 5083.99 0z"/><path class="fil0" d="M4123.96 1404.93c88.14-56.16 205.12-30.24 261.28 57.9 56.16 88.14 30.24 205.12-57.9 261.28l-683.26 435.33c-88.14 56.16-205.12 30.24-261.28-57.9-56.16-88.14-30.24-205.12 57.9-261.28l683.26-435.33z"/><path class="fil1" d="M5083.99 5954.3c562.03 0 1017.64-455.61 1017.64-1017.64 0-562.02-455.61-1017.64-1017.64-1017.64-562.02 0-1017.64 455.61-1017.64 1017.64 0 562.02 455.61 1017.64 1017.64 1017.64z"/><path class="fil0" d="M4327.34 4230.19c88.14 56.16 114.06 173.15 57.9 261.28-56.16 88.14-173.15 114.06-261.28 57.9l-683.26-435.33c-88.14-56.16-114.06-173.15-57.9-261.28 56.16-88.14 173.15-114.06 261.28-57.9l683.26 435.33zM2022.02 1917.19c-671.58 0-1113.9 439.63-1113.9 1065.36 0 614.94 431.54 1054.57 1059.96 1054.57 267.01 0 458.51-80.91 579.88-159.13 48.55-29.67 59.34-97.1 21.58-142.95l-70.12-80.91c-32.37-37.76-86.31-45.85-126.77-18.88-80.91 53.94-210.37 115.97-404.56 115.97-380.29 0-749.8-272.41-749.8-768.67 0-458.51 277.8-776.77 803.74-776.77 528.63 0 774.07 323.65 774.07 676.97 0 199.59-70.12 323.65-161.83 323.65-70.12 0-118.67-40.46-118.67-148.34v-488.17c0-53.94-43.15-97.1-94.4-97.1h-153.74c-40.46 0-72.82 32.37-72.82 72.82v21.58c-64.73-70.12-148.34-118.67-261.62-118.67-304.77 0-463.9 261.62-463.9 528.63 0 285.89 175.31 528.63 498.97 528.63 156.43 0 264.31-64.73 331.74-159.13 70.12 113.28 188.8 172.61 337.14 172.61 218.46 0 471.99-199.58 471.99-636.52 0-496.26-385.68-965.56-1086.93-965.56zm-24.27 1246.06c-113.28 0-186.1-80.91-186.1-186.1s72.82-186.1 186.1-186.1c102.49 0 186.1 75.52 186.1 186.1 0 107.88-80.91 186.1-186.1 186.1z"/></g></g></svg>
